<?xml version="1.0" encoding="UTF-8" standalone="no"?>
<!-- Created with Inkscape (http://www.inkscape.org/) -->

<svg
   xmlns:dc="http://purl.org/dc/elements/1.1/"
   xmlns:cc="http://creativecommons.org/ns#"
   xmlns:rdf="http://www.w3.org/1999/02/22-rdf-syntax-ns#"
   xmlns:svg="http://www.w3.org/2000/svg"
   xmlns="http://www.w3.org/2000/svg"
   xmlns:sodipodi="http://sodipodi.sourceforge.net/DTD/sodipodi-0.dtd"
   xmlns:inkscape="http://www.inkscape.org/namespaces/inkscape"
   width="394.4678mm"
   height="258.4455mm"
   viewBox="0 0 394.4678 258.4455"
   version="1.1"
   id="svg8"
   inkscape:version="0.92.2 (unknown)"
   sodipodi:docname="reac_downdraft_svg.svg">
  <defs
     id="defs2" />
  <sodipodi:namedview
     id="base"
     pagecolor="#ffffff"
     bordercolor="#666666"
     borderopacity="1.0"
     inkscape:pageopacity="0.0"
     inkscape:pageshadow="2"
     inkscape:zoom="0.175"
     inkscape:cx="-41.191041"
     inkscape:cy="1349.0953"
     inkscape:document-units="mm"
     inkscape:current-layer="layer1"
     showgrid="false"
     fit-margin-top="0"
     fit-margin-left="0"
     fit-margin-right="0"
     fit-margin-bottom="0"
     inkscape:window-width="1855"
     inkscape:window-height="1056"
     inkscape:window-x="65"
     inkscape:window-y="24"
     inkscape:window-maximized="1" />
  <metadata
     id="metadata5">
    <rdf:RDF>
      <cc:Work
         rdf:about="">
        <dc:format>image/svg+xml</dc:format>
        <dc:type
           rdf:resource="http://purl.org/dc/dcmitype/StillImage" />
        <dc:title></dc:title>
      </cc:Work>
    </rdf:RDF>
  </metadata>
  <g
     inkscape:label="Calque 1"
     inkscape:groupmode="layer"
     id="layer1"
     transform="translate(11.831596,-105.36887)">
    <path
       style="fill:#000000;stroke-width:0.35277778"
       d="m 272.08889,362.40811 c -0.12277,-0.89573 -0.22322,-2.55895 -0.22322,-3.69604 v -2.06743 h 1.78189 c 1.71111,0 1.80288,0.0503 2.31043,1.26498 0.96469,2.30883 -0.54055,4.65288 -2.50403,3.89942 -0.3966,-0.15219 -0.52996,0.0549 -0.52996,0.82308 0,1.6881 -0.5949,1.52853 -0.83511,-0.22401 z m 2.77539,-3.11763 c 0,-1.27 -0.0882,-1.41111 -0.88195,-1.41111 -0.70637,0 -0.90473,0.19905 -0.99644,0.99993 -0.16723,1.4604 0.17099,2.06474 1.08306,1.93523 0.67387,-0.0957 0.79533,-0.32843 0.79533,-1.52405 z m -20.28472,-0.35278 v -2.99861 h -1.05834 c -0.70555,0 -1.05833,-0.17639 -1.05833,-0.52917 0,-0.42333 0.52917,-0.52917 2.64583,-0.52917 2.11667,0 2.64584,0.10584 2.64584,0.52917 0,0.35278 -0.35278,0.52917 -1.05834,0.52917 h -1.05833 v 2.99861 c 0,2.43025 -0.1003,2.99861 -0.52917,2.99861 -0.42887,0 -0.52916,-0.56836 -0.52916,-2.99861 z m 4.43492,2.44424 c -0.78993,-0.78993 -0.73271,-3.40821 0.0908,-4.15345 0.94603,-0.85615 2.72548,-0.75111 3.3918,0.20021 1.06114,1.51499 0.74269,2.03817 -1.24058,2.03817 -1.51417,0 -1.77164,0.0951 -1.67209,0.61736 0.13942,0.7315 1.67749,1.04488 2.06343,0.42043 0.16057,-0.25982 0.53187,-0.33274 0.92184,-0.18105 0.60967,0.23717 0.59774,0.29905 -0.17987,0.93335 -1.00766,0.82196 -2.61868,0.88161 -3.3753,0.12498 z m 2.62063,-3.17323 c 0,-0.39163 -0.27468,-0.52008 -0.94293,-0.44097 -1.37341,0.16259 -1.49452,0.99357 -0.1448,0.99357 0.75219,0 1.08773,-0.17047 1.08773,-0.5526 z m 2.35185,3.49241 c -0.12935,-0.12935 -0.23518,-1.29893 -0.23518,-2.59908 v -2.3639 l 3.19485,-0.0175 c 3.12474,-0.0171 3.20252,0.003 3.54438,0.90184 0.52318,1.37607 0.2634,4.13744 -0.38923,4.13744 -0.39675,0 -0.55565,-0.50759 -0.63497,-2.02847 -0.0763,-1.46384 -0.24474,-2.02847 -0.60495,-2.02847 -0.72747,0 -1.22953,1.15493 -1.22953,2.82842 0,2.30421 -0.86023,1.58325 -0.98774,-0.82782 -0.0883,-1.67038 -0.21312,-2.0006 -0.75601,-2.0006 -0.80747,0 -1.07847,0.67211 -1.07847,2.67468 0,1.45568 -0.26495,1.88167 -0.82315,1.32346 z m 13.95442,-0.31398 c -0.60295,-0.42232 -0.78405,-0.8986 -0.78405,-2.06199 0,-1.7955 0.78111,-2.68051 2.36584,-2.68051 1.20157,0 1.66108,0.4251 2.00196,1.85209 0.22988,0.9623 0.21715,0.97014 -1.5766,0.97014 -1.50404,0 -1.77232,0.0939 -1.59422,0.55802 0.11778,0.30691 0.21413,0.62441 0.21413,0.70555 0,0.31251 1.73363,0.12913 1.94028,-0.20524 0.32648,-0.52826 0.88195,-0.42498 0.88195,0.16398 0,1.16189 -2.16227,1.59942 -3.44929,0.69796 z m 2.5112,-3.17408 c -0.24839,-0.6473 -1.93069,-0.56339 -2.15091,0.10728 -0.0976,0.29718 0.26377,0.44097 1.10825,0.44097 0.98827,0 1.20859,-0.11585 1.04266,-0.54825 z m 2.23748,3.49394 c -0.13258,-0.13258 -0.24106,-1.32585 -0.24106,-2.65171 v -2.41065 h 1.41111 c 1.57994,0 1.91392,0.67043 0.61736,1.23927 -0.62435,0.27391 -0.81732,0.68703 -0.90421,1.93573 -0.11211,1.61107 -0.44599,2.32457 -0.8832,1.88736 z m 3.19852,-0.16176 c -0.7085,-0.40115 -0.81825,-1.73637 -0.19403,-2.3606 0.23284,-0.23283 0.85847,-0.42333 1.39029,-0.42333 1.10912,0 1.68315,-0.64144 0.96902,-1.0828 -0.29679,-0.18342 -0.80163,-0.0894 -1.31053,0.24402 -0.96282,0.63087 -1.43723,0.3652 -0.89473,-0.50106 0.45492,-0.72642 2.79101,-0.9955 3.50419,-0.40362 0.33712,0.27979 0.5045,1.13604 0.50441,2.5804 l -1.3e-4,2.16167 -1.67556,0.0674 c -0.92156,0.0371 -1.95338,-0.0899 -2.29293,-0.28211 z m 2.4359,-1.21165 c 0.1149,-0.29941 0.13193,-0.62135 0.0379,-0.71542 -0.27507,-0.27507 -2.03279,0.50168 -2.03279,0.8983 0,0.57852 1.76484,0.41674 1.99493,-0.18288 z m 3.17915,1.36753 c -0.12935,-0.12935 -0.23519,-1.06862 -0.23519,-2.08726 0,-1.10007 -0.16751,-1.90793 -0.41256,-1.98961 -0.30446,-0.10148 -0.28189,-0.43273 0.0861,-1.26412 0.54945,-1.2413 1.38478,-1.51301 1.38478,-0.45044 0,0.37188 0.19843,0.74892 0.44097,0.83785 0.35278,0.12935 0.35278,0.25517 0,0.62912 -0.52308,0.55446 -0.59731,3.50132 -0.0882,3.50132 0.19403,0 0.35278,0.23812 0.35278,0.52916 0,0.52913 -1.08492,0.73777 -1.5287,0.29398 z m 2.64734,-0.1984 c -0.50393,-0.50392 -0.55797,-4.85808 -0.0603,-4.85808 0.19402,0 0.35277,0.7014 0.35277,1.55865 0,2.00565 0.27107,2.67469 1.08367,2.67469 0.87011,0 1.38578,-1.04156 1.38578,-2.79903 0,-0.78887 0.15875,-1.43431 0.35278,-1.43431 0.20289,0 0.35277,1.09156 0.35277,2.56911 v 2.56911 l -1.5272,0.0665 c -0.83996,0.0366 -1.71308,-0.11942 -1.94027,-0.34661 z m 5.11965,0.20428 c -0.13259,-0.13258 -0.24107,-1.32585 -0.24107,-2.65171 v -2.41065 h 1.41112 c 1.57993,0 1.91392,0.67043 0.61736,1.23927 -0.62435,0.27391 -0.81733,0.68703 -0.90422,1.93573 -0.1121,1.61107 -0.44599,2.32457 -0.88319,1.88736 z m 3.28671,-0.47625 c -0.85167,-0.85166 -0.92773,-2.70081 -0.15638,-3.80205 1.11276,-1.5887 4.03694,-0.66718 4.03694,1.27219 0,0.68566 -0.18804,0.76598 -1.79329,0.76598 -1.82731,0 -2.16226,0.42395 -0.94271,1.19322 0.40765,0.25714 0.83481,0.22179 1.47778,-0.12231 1.21156,-0.64841 1.64748,-0.12443 0.60178,0.72334 -1.07454,0.87114 -2.33448,0.85927 -3.22412,-0.0304 z m 2.82222,-2.80981 c 0,-0.61081 -1.26366,-1.07708 -1.70984,-0.6309 -0.66979,0.66979 -0.46756,0.97127 0.65151,0.97127 0.58208,0 1.05833,-0.15317 1.05833,-0.34037 z M 12.574014,356.62187 c 0,-0.20656 0.47625,-0.77629 1.05833,-1.26608 0.58208,-0.4898 1.05833,-1.11455 1.05833,-1.38834 0,-0.56897 -0.90687,-0.67549 -1.23472,-0.14503 -0.32788,0.53052 -0.88194,0.42393 -0.88194,-0.16967 0,-0.5844 1.47594,-1.07464 2.29226,-0.76139 0.77177,0.29615 0.64832,1.64154 -0.23709,2.58402 l -0.76705,0.81649 h 0.76705 c 0.42188,0 0.76705,0.15875 0.76705,0.35277 0,0.19403 -0.635,0.35278 -1.41111,0.35278 -0.77611,0 -1.41111,-0.169 -1.41111,-0.37555 z m 55.386107,-0.0486 c 0,-0.23329 0.502468,-0.94259 1.116598,-1.57621 0.986183,-1.01749 1.043831,-1.17996 0.493561,-1.39112 -0.371743,-0.14265 -0.743225,-0.0446 -0.921025,0.24308 -0.388663,0.62887 -0.840822,0.172 -0.558331,-0.56415 0.282899,-0.73723 1.955447,-0.56103 2.46955,0.26017 0.303004,0.48399 0.173852,0.81809 -0.647781,1.67569 -0.964142,1.00635 -0.980814,1.07117 -0.275505,1.07117 0.412905,0 0.84885,0.15875 0.968766,0.35277 0.131674,0.21306 -0.349116,0.35278 -1.213901,0.35278 -0.880124,0 -1.431932,-0.16346 -1.431932,-0.42418 z m -78.861867,-2.20562 c -1.2398,-1.23979 -1.2398,-4.08394 0,-5.32373 1.4310198,-1.43103 5.1313098,-0.89625 5.1313098,0.74159 0,0.72987 -0.96068,0.62762 -1.84516,-0.19639 -0.9695,-0.90323 -1.17933,-0.88813 -2.22782,0.16035 -0.9987898,0.99879 -1.1279298,2.48357 -0.3167298,3.64171 0.7188498,1.02631 1.9508298,0.99611 2.9546598,-0.0724 0.75452,-0.80315 1.78783,-0.88827 1.78783,-0.14729 0,0.18254 -0.42005,0.72118 -0.93346,1.19698 -1.28312,1.18916 -3.36103,1.18879 -4.5506298,-7e-4 z m 17.1257598,-2.66187 c 0,-2.90061 0.0941,-3.52777 0.52916,-3.52777 0.38218,0 0.52917,0.39197 0.52917,1.41111 v 1.41111 h 1.5875 1.5875002 v -1.43698 c 0,-1.17866 0.11098,-1.4156 0.61736,-1.31809 0.53622,0.10327 0.61736,0.55873 0.61736,3.46546 0,2.73953 -0.096,3.34655 -0.52916,3.34655 -0.37035,0 -0.56173,-0.44998 -0.63765,-1.4993 l -0.10848,-1.49931 h -1.5672102 -1.56722 v 1.5875 c 0,1.17593 -0.13719,1.5875 -0.52917,1.5875 -0.43509,0 -0.52916,-0.62716 -0.52916,-3.52778 z m 11.4257002,3.03681 c -1.81323,-1.31227 -1.9513,-4.50747 -0.25251,-5.84374 1.16116,-0.91337 3.17939,-0.92618 4.34903,-0.0276 0.76808,0.59008 0.88194,0.95181 0.88194,2.80178 0,1.50205 -0.17017,2.29439 -0.581,2.70522 -0.82313,0.82313 -3.46148,1.04173 -4.39746,0.36434 z m 3.39096,-1.27292 c 1.05196,-1.05195 0.94074,-2.93879 -0.22738,-3.85764 -0.91053,-0.71622 -0.95926,-0.71854 -2.02847,-0.0965 -0.87345,0.5081 -1.11815,0.909 -1.20709,1.97757 -0.19683,2.3649 1.88587,3.55368 3.46294,1.97661 z m 18.568412,1.03273 c -0.811734,-0.63851 -0.92952,-0.98833 -0.92952,-2.76073 0,-1.66535 0.146523,-2.16721 0.816487,-2.79662 1.489784,-1.39957 4.827957,-0.75211 4.827957,0.93643 0,0.61199 -0.657066,0.50254 -1.644089,-0.27385 -1.232824,-0.96974 -2.49115,-0.37097 -2.811748,1.33795 -0.495758,2.64262 1.825498,4.26606 3.342414,2.33761 0.726754,-0.92392 1.466201,-0.92124 1.466201,0.005 0,0.7927 -1.776539,1.94506 -2.998611,1.94506 -0.626766,0 -1.557856,-0.32902 -2.069091,-0.73116 z m 6.804455,-0.30004 c -1.525185,-1.52518 -1.353424,-4.26482 0.349342,-5.57216 0.985541,-0.75668 3.341155,-0.55247 4.202412,0.36429 1.142104,1.21572 1.087438,4.18686 -0.09886,5.37316 -1.251239,1.25124 -3.105182,1.18243 -4.452892,-0.16529 z m 3.796761,-0.79418 c 1.318944,-1.23909 0.968022,-3.12192 -0.760117,-4.07834 -1.697834,-0.93965 -3.618607,1.62034 -2.627404,3.50178 0.82549,1.56689 2.102087,1.78416 3.387521,0.57656 z m 11.399819,-1.673 c 0,-2.92675 0.09378,-3.55717 0.529167,-3.55717 0.382174,0 0.529166,0.39197 0.529166,1.41111 v 1.41111 h 1.5875 1.5875 v -1.41111 c 0,-1.01914 0.146992,-1.41111 0.529167,-1.41111 0.435091,0 0.529167,0.62716 0.529167,3.52777 0,2.90062 -0.09408,3.52778 -0.529167,3.52778 -0.391975,0 -0.529167,-0.41157 -0.529167,-1.5875 v -1.5875 h -1.567215 -1.567215 l -0.108479,1.47189 c -0.05967,0.80954 -0.306917,1.53714 -0.549452,1.6169 -0.333209,0.10957 -0.440972,-0.72427 -0.440972,-3.41217 z m -61.83050719,1.4116 c -0.0972,-0.37161 -0.53983,-0.7288 -0.98366001,-0.79375 -1.18795,-0.17383 -1.25151,-0.92951 -0.0894,-1.06277 0.71564001,-0.0821 1.02239001,-0.33423 1.10379001,-0.90739 0.062,-0.43657 0.2494,-0.79375 0.41644,-0.79375 0.16703,0 0.35443,0.35718 0.41643,0.79375 0.0725,0.5101 0.39637999,0.83403 0.90647999,0.90648 1.10017,0.15625 1.02426,1.12199 -0.0882,1.12199 -0.64675999,0 -0.88194999,0.18815 -0.88194999,0.70556 0,0.8989 -0.56716,0.92009 -0.79995,0.0299 z m 32.32475019,0.1465 c 0.17003,-0.44308 -0.25423,-0.52916 -2.60809,-0.52916 -1.63892,0 -2.81115,-0.14711 -2.81115,-0.35278 0,-0.20544 1.16492,-0.35278 2.78919,-0.35278 2.61552,0 2.77771,-0.0439 2.60469,-0.70555 -0.22274,-0.85178 -0.1453,-0.85824 1.65453,-0.13809 0.78004,0.31211 1.418255,0.77112 1.418255,1.02003 0,0.24891 -0.638215,0.70792 -1.418255,1.02003 -1.74634,0.69875 -1.88385,0.70198 -1.62917,0.0383 z m 25.272424,-0.17638 c 0,-0.51741 -0.235187,-0.70556 -0.881945,-0.70556 -1.112449,0 -1.188363,-0.96574 -0.08819,-1.12199 0.510103,-0.0725 0.834034,-0.39638 0.90648,-0.90648 0.062,-0.43657 0.328775,-0.79375 0.592825,-0.79375 0.264051,0 0.530825,0.35718 0.592826,0.79375 0.07245,0.5101 0.396377,0.83403 0.90648,0.90648 1.100169,0.15625 1.024255,1.12199 -0.08819,1.12199 -0.646758,0 -0.881945,0.18815 -0.881945,0.70556 0,0.39197 -0.235186,0.70555 -0.529167,0.70555 -0.29398,0 -0.529166,-0.31358 -0.529166,-0.70555 z m 22.108494,-0.93966 c -0.129949,-0.12995 -0.236273,-4.81356 -0.236273,-10.40803 v -10.17176 h -7.055555 c -6.820369,0 -7.055555,-0.0235 -7.055555,-0.70556 0,-0.69082 0.235186,-0.70555 11.263284,-0.70555 h 11.263284 l 0.642965,0.85627 c 0.353632,0.47095 1.436716,2.09814 2.406855,3.61597 l 1.763889,2.7597 0.09975,-3.96875 c 0.08063,-3.20789 0.19898,-3.96875 0.617361,-3.96875 0.428025,0 0.517613,0.78209 0.517613,4.51869 0,4.92589 -0.392543,6.32726 -1.470424,5.24938 -0.297402,-0.2974 -1.556434,-2.14063 -2.797845,-4.09606 l -2.257114,-3.55534 h -3.440088 -3.440084 v 9.70249 9.7025 l 54.945135,-0.0893 54.94514,-0.0893 v -49.38889 -49.38889 l -1.23072,-0.17639 c -1.81486,-0.26011 -1.89723,-1.32978 -0.11372,-1.47673 l 1.34444,-0.11077 0.0967,-5.90903 c 0.0532,-3.24996 -0.0418,-5.90903 -0.21111,-5.90903 -0.16931,0 -1.68127,1.42179 -3.35992,3.15953 l -3.05209,3.15953 v 2.83769 c 0,2.60251 0.0585,2.8377 0.70556,2.8377 0.47037,0 0.70555,0.23519 0.70555,0.70555 0,0.47037 -0.23518,0.70556 -0.70555,0.70556 -0.69815,0 -0.70556,0.23519 -0.70556,22.40139 v 22.40139 h 2.11667 c 1.6463,0 2.11667,0.11759 2.11667,0.52917 0,0.41157 -0.47037,0.52916 -2.11667,0.52916 h -2.11667 v 17.07792 17.07791 l -2.44355,3.295 c -1.34395,1.81225 -2.6796,3.61251 -2.96809,4.00056 -0.39912,0.53687 -0.6251,0.60806 -0.94519,0.29779 -0.41948,-0.40664 0.80117,-2.41692 4.12093,-6.78671 l 1.17757,-1.55004 v -11.57012 c 0,-6.36356 -0.1301,-11.65052 -0.28912,-11.7488 -0.15901,-0.0983 -1.42901,1.26254 -2.82222,3.02402 l -2.5331,3.2027 v 5.951 c 0,5.05459 -0.0797,5.951 -0.52917,5.951 -0.4507,0 -0.52917,-0.93818 -0.52917,-6.32689 v -6.32689 l 2.20486,-2.70601 c 1.21268,-1.4883 2.7208,-3.34587 3.35139,-4.12792 l 1.14653,-1.42192 v -26.58686 c 0,-26.35166 -0.006,-26.58685 -0.70556,-26.58685 -0.4558,0 -0.70555,-0.23519 -0.70555,-0.66441 0,-0.36772 0.31506,-0.7468 0.70555,-0.84892 0.63743,-0.16669 0.70556,-0.48119 0.70556,-3.25702 v -3.07251 l 3.88464,-3.97938 3.88463,-3.97937 -0.0923,-14.05961 -0.0923,-14.05961 H 171.59376 152.9899 l -0.0934,-10.05417 -0.0934,-10.05417 -1.54731,2.29306 c -2.94329,4.36187 -5.8508,6.83857 -9.75187,8.30693 -4.42266,1.66468 -11.30362,1.11229 -15.49925,-1.24425 -4.42003,-2.48259 -5.38482,-3.49521 -7.61625,-7.99381 l -1.72546,-3.47859 -0.01,11.1125 -0.01,11.1125 -18.168189,-0.10039 -18.168171,-0.10038 v 13.84013 13.84013 l 3.880555,3.93317 3.880556,3.93317 v 3.58194 3.58195 h 1.613365 c 1.345967,0 1.59396,0.10232 1.496265,0.61736 -0.08543,0.45034 -0.521903,0.64671 -1.613369,0.72584 l -1.496261,0.10848 v 26.30506 26.30505 l 1.649137,2.33786 c 0.907027,1.28581 2.180512,2.93748 2.829973,3.67036 l 1.180831,1.33251 -0.09594,6.51738 c -0.124513,8.45808 -0.764074,8.98936 -0.898394,0.7463 l -0.09689,-5.94631 -1.123231,-1.63841 c -0.617777,-0.90114 -1.254488,-1.79717 -1.414914,-1.9912 -0.160422,-0.19403 -0.682928,-0.89956 -1.161122,-1.56784 l -0.869445,-1.21507 v 8.46465 c 0,6.11324 -0.117599,8.58225 -0.423334,8.88798 -0.311227,0.31123 -3.347469,0.42333 -11.465277,0.42333 -9.509725,0 -11.041944,-0.0724 -11.041944,-0.5217 0,-0.43959 1.096722,-0.53677 6.967361,-0.61737 l 6.967361,-0.0956 V 283.0905 242.87384 l -6.967361,-0.0957 c -4.244263,-0.0583 -6.967361,-0.23061 -6.967361,-0.44097 0,-0.55235 14.796311,-0.45803 15.005078,0.0957 0.09145,0.24254 0.205528,18.53848 0.253513,40.65764 l 0.08724,40.21667 h 2.998611 2.998611 l 0.09259,-12.78819 0.0926,-12.7882 h -1.591902 c -1.179837,0 -1.591899,-0.13697 -1.591899,-0.52916 0,-0.39198 0.411575,-0.52917 1.5875,-0.52917 h 1.5875 v -8.81945 -8.81944 H 85.42256 84.187838 v 6.19948 c 0,5.71425 -0.04832,6.1902 -0.617361,6.0809 -0.554948,-0.10659 -0.627119,-0.73333 -0.713885,-6.19948 -0.08069,-5.08325 -0.181976,-6.0809 -0.617361,-6.0809 -0.286462,0 -0.520837,-0.20466 -0.520837,-0.45481 0,-0.63619 2.283851,-4.95138 2.692685,-5.08766 0.184634,-0.0615 0.751336,1.12065 1.259336,2.62709 l 0.923639,2.73899 0.03161,-17.63287 0.03162,-17.63286 -3.609668,-3.622 -3.609672,-3.62199 h -7.15005 c -6.914868,0 -7.150054,-0.0232 -7.150054,-0.70556 0,-0.68202 0.235186,-0.70555 7.051555,-0.70555 h 7.051551 l 0.0922,-14.19931 0.09219,-14.19931 17.991666,-0.17638 17.991668,-0.17639 0.0903,-27.95764 c 0.0789,-24.41471 0.15652,-27.95764 0.61273,-27.95764 0.44939,0 0.53539,1.68893 0.61523,12.08264 l 0.0928,12.08264 0.85014,-1.76389 c 1.34024,-2.78074 3.52758,-5.42288 5.65687,-6.83304 4.09434,-2.71154 6.884,-3.56376 11.68521,-3.56972 5.48429,-0.007 9.1827,1.43891 12.96554,5.06825 1.23797,1.18773 2.66606,2.87389 3.17353,3.74701 1.88149,3.23721 1.82844,3.50262 1.82844,-9.14702 0,-10.13536 0.0695,-11.66687 0.52916,-11.66687 0.46593,0 0.52917,3.35104 0.52917,28.04269 v 28.04267 l 18.43264,0.0913 18.43264,0.0913 0.0909,21.66298 c 0.0641,15.2775 0.20676,21.80256 0.4839,22.13649 0.28902,0.34825 0.28714,0.73024 -0.007,1.44397 -0.28703,0.69624 -0.37392,7.15069 -0.30752,22.84268 l 0.0925,21.87222 1.6757,0.10752 c 1.14406,0.0734 1.67569,0.26314 1.67569,0.59804 0,0.33489 -0.53163,0.52462 -1.67569,0.59803 l -1.6757,0.10752 -0.17639,27.16389 -0.17639,27.16389 -55.5908,0.0893 c -30.57495,0.0491 -55.697133,-0.017 -55.827086,-0.147 z M 142.21984,196.81655 c 3.38467,-1.62847 6.87636,-5.19946 8.97568,-9.17955 1.54758,-2.93406 1.5675,-3.01601 1.57973,-6.4993 0.0118,-3.34999 -0.0578,-3.68742 -1.37935,-6.6954 -1.13667,-2.58711 -1.85054,-3.63546 -3.89536,-5.72047 -3.94072,-4.01817 -8.40357,-5.71542 -13.84655,-5.2659 -6.43241,0.53122 -11.79526,3.83539 -14.26578,8.78944 -2.8649,5.74491 -2.43709,12.26165 1.20364,18.33462 1.79564,2.99522 2.84581,3.88326 6.81132,5.75975 3.75696,1.77779 4.22744,1.87139 8.81945,1.75463 3.18328,-0.0809 3.76892,-0.20572 5.99722,-1.27782 z m -2.46298,-9.68163 c -2.46981,-2.61938 -4.64555,-4.7625 -4.83498,-4.7625 -0.5097,0 -2.88839,2.02714 -6.38425,5.44072 -3.13523,3.06144 -3.54754,3.33516 -3.97702,2.64026 -0.28271,-0.45745 1.69187,-2.5327 5.92937,-6.23167 1.69774,-1.48198 3.08681,-2.83442 3.08681,-3.00543 0,-0.171 -1.97421,-2.40177 -4.38712,-4.95726 -5.65963,-5.99405 -6.07245,-6.52088 -5.3323,-6.8049 0.39495,-0.15156 1.27465,0.55882 2.93677,2.3715 1.30511,1.42333 3.64961,3.90628 5.21,5.51767 l 2.83708,2.92978 5.51052,-5.47672 c 5.05074,-5.01977 6.63695,-6.22512 6.62686,-5.03575 -0.002,0.24253 -2.52821,2.89313 -5.61368,5.89022 l -5.60993,5.44925 4.55534,4.81945 c 4.03738,4.27147 5.24948,5.97788 4.24622,5.97788 -0.17002,0 -2.32988,-2.14313 -4.79969,-4.7625 z m 100.52357,162.0132 c -0.0912,-0.24254 -0.20531,-11.87098 -0.25351,-25.84098 l -0.0876,-25.4 -1.14653,-0.11054 c -1.62488,-0.15667 -1.54898,-1.12418 0.0882,-1.12418 h 1.23472 v -51.50556 c 0,-45.54753 0.0612,-51.50555 0.52916,-51.50555 0.53986,0 0.60623,16.15572 0.52936,128.85208 l -0.0175,25.66459 h 38.9906 c 38.7554,0 38.9906,0.004 38.9906,0.70555 0,0.70134 -0.2352,0.70556 -39.34579,0.70556 -31.15299,0 -39.38034,-0.0918 -39.51167,-0.44097 z M 83.011973,348.29557 c -0.129353,-0.12935 -0.235186,-2.1931 -0.235186,-4.58611 0,-3.63231 -0.0874,-4.35093 -0.529167,-4.35093 -0.291041,0 -0.529166,-0.14608 -0.529166,-0.32463 0,-0.61376 2.293334,-4.24757 2.685069,-4.25452 0.345839,-0.006 1.901042,3.45788 1.901042,4.23433 0,0.16388 -0.436563,0.34819 -0.970139,0.40958 l -0.970139,0.11163 -0.09975,3.96875 -0.09975,3.96875 h 18.885163 c 16.55163,0 18.88516,0.0654 18.88516,0.52917 0,0.46394 -2.38451,0.52916 -19.34397,0.52916 -10.639196,0 -19.449821,-0.10583 -19.579171,-0.23518 z m 65.381477,-0.29398 c 0,-0.46378 2.33225,-0.52917 18.87361,-0.52917 h 18.87361 v -4.03241 c 0,-3.73205 -0.0515,-4.0408 -0.69174,-4.14514 -0.62938,-0.10256 -0.565,-0.3115 0.71411,-2.31759 0.77322,-1.21267 1.52107,-2.20215 1.66189,-2.19884 0.29752,0.007 1.8488,3.48594 1.84565,4.13912 -0.001,0.25431 -0.45012,0.44097 -1.06046,0.44097 h -1.05834 v 4.58611 4.58611 h -19.57916 c -17.16852,0 -19.57917,-0.0652 -19.57917,-0.52916 z m -22.225,-1.76082 c 0,-0.31781 0.30214,-1.32164 0.67142,-2.23073 0.36928,-0.90909 0.90725,-2.2879 1.19548,-3.06401 0.83393,-2.24551 1.60101,-1.8991 2.88433,1.30258 0.59824,1.49252 1.2027,2.82867 1.34324,2.96921 0.14054,0.14054 0.25553,0.54657 0.25553,0.90229 0,1.106 -1.02251,0.70984 -1.57388,-0.60979 -0.48568,-1.16241 -0.62468,-1.24831 -1.85523,-1.14653 -1.16817,0.0966 -1.35223,0.23842 -1.51091,1.16405 -0.19422,1.13294 -1.40998,1.74767 -1.40998,0.71293 z m 3.44747,-4.13874 c -0.24767,-0.71047 -0.45719,-0.94208 -0.55848,-0.61736 -0.0892,0.28583 -0.30499,0.79751 -0.47962,1.13706 -0.261,0.50746 -0.16158,0.61736 0.55848,0.61736 0.83362,0 0.85682,-0.055 0.47962,-1.13706 z m 3.80448,3.88078 c -0.30204,-0.43122 -0.54917,-0.90747 -0.54917,-1.05833 0,-0.45511 0.78803,-0.309 1.42051,0.26339 0.56234,0.50891 1.75449,0.39399 1.75449,-0.16912 0,-0.14384 -0.635,-0.51096 -1.41111,-0.81582 -1.09587,-0.43047 -1.41111,-0.74191 -1.41111,-1.39407 0,-0.46188 0.1905,-1.03027 0.42333,-1.26311 0.65033,-0.65032 2.21756,-0.50287 2.9214,0.27487 0.60762,0.67141 0.60714,0.70769 -0.0123,0.94541 -0.38207,0.14662 -0.70068,0.0778 -0.78297,-0.16903 -0.0763,-0.22894 -0.45627,-0.41625 -0.84432,-0.41625 -1.0796,0 -0.58872,0.7511 0.78,1.19349 0.95582,0.30893 1.24362,0.60811 1.33276,1.38549 0.15277,1.3323 -0.4863,2.00714 -1.90077,2.00714 -0.8107,0 -1.34066,-0.24148 -1.72069,-0.78406 z m 4.55168,0.3445 c -0.10515,-0.27403 -0.14493,-1.91441 -0.0884,-3.64531 0.0822,-2.51652 0.20883,-3.14708 0.63197,-3.14708 0.30959,0 0.57396,0.38671 0.63711,0.93195 0.0821,0.70868 0.2636,0.89124 0.75769,0.76204 0.35736,-0.0935 0.98347,0.009 1.39136,0.22699 0.64595,0.3457 0.74162,0.71765 0.74162,2.88333 0,1.83132 -0.11618,2.44821 -0.44097,2.34137 -0.25778,-0.0848 -0.51425,-1.01296 -0.61736,-2.23425 -0.15157,-1.79523 -0.27567,-2.08921 -0.88195,-2.08921 -0.60627,0 -0.73037,0.29398 -0.88194,2.08921 -0.16892,2.0008 -0.82441,2.98782 -1.24915,1.88096 z M 34.446234,344.22602 c 0,-0.2333 0.505085,-0.94529 1.122414,-1.58221 1.150719,-1.18725 1.123912,-1.9924 -0.04209,-1.26421 -0.744647,0.46503 -1.119894,0.25642 -0.841883,-0.46806 0.111241,-0.28989 0.685348,-0.49468 1.386805,-0.49468 1.015552,0 1.196978,0.1236 1.196978,0.81543 0,0.44848 -0.333608,1.17351 -0.741348,1.61117 l -0.741345,0.79574 0.741345,0.19387 c 1.235974,0.32321 0.831134,0.81713 -0.669763,0.81713 -0.863907,0 -1.411113,-0.16449 -1.411113,-0.42418 z M 3.2286338,341.83155 c -0.35772,-0.39528 -0.7088,-1.46713 -0.80356,-2.45325 -0.15276,-1.58979 -0.0692,-1.85035 0.90625,-2.8258 1.34014,-1.34014 2.81158,-1.41628 4.19593,-0.21712 0.7501,0.64975 0.89137,0.95752 0.58333,1.27078 -0.30993,0.31521 -0.65646,0.22857 -1.45902,-0.36479 -1.25138,-0.92519 -2.25925,-0.72916 -2.84346,0.55304 -0.58492,1.28375 -0.50479,2.04933 0.32485,3.10405 0.91775,1.16674 1.84062,1.1828 2.73359,0.0476 0.81876,-1.04089 1.47413,-1.14361 1.47413,-0.23106 0,1.75683 -3.78453,2.58346 -5.11204,1.11658 z m 17.8360602,-0.32262 c -0.45731,-0.64223 -0.72957,-1.57391 -0.72957,-2.49658 0,-2.7225 2.78945,-4.43575 4.86039,-2.9852 0.43123,0.30204 0.78405,0.85766 0.78405,1.23472 0,0.86192 -0.19748,0.85892 -1.31485,-0.02 -1.11716,-0.87876 -1.58753,-0.88595 -2.35668,-0.0361 -0.42359,0.46806 -0.57272,1.12808 -0.49565,2.19363 0.0904,1.24986 0.28852,1.62137 1.10098,2.06452 0.94868,0.51746 1.02658,0.49922 1.83516,-0.42973 1.38069,-1.58625 2.23367,-0.99659 1.03465,0.71525 -0.4398,0.62791 -0.89169,0.78405 -2.26903,0.78405 -1.49572,0 -1.81495,-0.13353 -2.44945,-1.0246 z m 7.04967,0.25724 c -1.58135,-1.69739 -1.1967,-4.78471 0.71959,-5.77566 1.34996,-0.69809 2.31759,-0.64405 3.69344,0.20627 2.01745,1.24685 2.11317,4.79495 0.15665,5.80671 -1.54446,0.79867 -3.70925,0.68624 -4.56968,-0.23732 z m 3.40322,-0.4678 c 1.50656,-1.05524 1.35533,-3.55209 -0.26776,-4.42074 -0.94419,-0.50531 -1.90008,-0.16258 -2.62277,0.94038 -0.68891,1.05142 -0.48866,2.28824 0.53649,3.31339 0.83484,0.83483 1.34851,0.87127 2.35404,0.16697 z m 20.920315,0.87446 c 0,-0.19839 0.79375,-1.11778 1.763889,-2.0431 1.783771,-1.70136 2.248055,-2.97937 1.224989,-3.37195 -0.305742,-0.11733 -0.79756,0.0953 -1.136735,0.49142 -0.759597,0.88714 -1.146587,0.88742 -1.146587,7.1e-4 0,-0.90992 1.513138,-1.89915 2.450084,-1.60178 2.179196,0.69165 2.330009,2.42715 0.372138,4.28242 -0.776111,0.73544 -1.411111,1.46321 -1.411111,1.61725 0,0.15405 0.635,0.28009 1.411111,0.28009 0.776111,0 1.411111,0.15875 1.411111,0.35278 0,0.20158 -1.058333,0.35277 -2.469445,0.35277 -1.447284,0 -2.469444,-0.1493 -2.469444,-0.3607 z m 6.346133,-0.78583 c -1.23088,-2.01878 -0.645375,-4.63367 1.228732,-5.48756 1.151608,-0.52472 1.681636,-0.52867 2.796075,-0.0209 1.019411,0.46448 1.45282,1.32235 0.93146,1.84371 -0.24801,0.24801 -0.590049,0.11804 -1.083642,-0.41177 -1.527033,-1.63908 -3.281126,-0.45595 -3.097053,2.08896 0.0904,1.24986 0.288519,1.62137 1.100977,2.06453 0.948679,0.51746 1.026587,0.49921 1.83516,-0.42974 0.978853,-1.12458 1.583824,-1.24653 1.583824,-0.31926 0,1.10727 -1.151247,1.81857 -2.94338,1.81857 -1.486457,0 -1.72357,-0.11558 -2.352153,-1.14653 z m 7.120915,0.33005 c -0.558236,-0.59422 -0.767048,-1.25862 -0.767048,-2.4406 0,-2.1249 0.234544,-2.66088 1.436341,-3.28236 1.457608,-0.75375 2.601482,-0.63507 3.828257,0.39719 0.96242,0.80982 1.085402,1.12669 1.085402,2.79662 0,1.61439 -0.13273,1.98772 -0.92952,2.61447 -1.318895,1.03744 -3.638603,0.99491 -4.653432,-0.0853 z m 3.658708,-0.75498 c 1.292066,-1.29207 1.080127,-3.34861 -0.415312,-4.02998 -1.184137,-0.53953 -1.431339,-0.50544 -2.246555,0.30977 -0.970108,0.97011 -0.93635,2.93251 0.06652,3.86682 1.006239,0.93745 1.541523,0.90721 2.595347,-0.14661 z m -55.642191,-0.28062 c -0.0807,-0.56833 -0.38825,-0.82545 -1.08287,-0.90538 -1.35659,-0.15609 -1.28065,-1.12309 0.0882,-1.12309 0.8937,0 1.05833,-0.1372 1.05833,-0.88195 0,-0.48507 0.15875,-0.88194 0.35278,-0.88194 0.19402,0 0.35277,0.38633 0.35277,0.85851 0,0.66753 0.20977,0.88334 0.94294,0.97014 1.37341,0.16259 1.49451,0.99357 0.14479,0.99357 -0.92506,0 -1.08773,0.13189 -1.08773,0.88194 0,1.09751 -0.61584,1.16812 -0.76921,0.0882 z m 32.646788,-0.0882 c 0.170646,-0.44469 -0.273826,-0.52916 -2.784478,-0.52916 -1.756509,0 -2.987541,-0.14537 -2.987541,-0.35278 0,-0.20937 1.326518,-0.35497 3.263194,-0.35818 2.151091,-0.004 3.086336,-0.11725 2.744244,-0.3336 -0.914424,-0.5783 -0.106048,-0.79966 1.198094,-0.32807 1.533454,0.5545 1.605826,1.17626 0.22032,1.89273 -1.319177,0.68218 -1.913382,0.68543 -1.653833,0.009 z m 129.341868,-5.99722 c 0,-3.05741 0.0924,-3.70417 0.52916,-3.70417 0.43678,0 0.52917,0.64676 0.52917,3.70417 0,3.05741 -0.0924,3.70417 -0.52917,3.70417 -0.43677,0 -0.52916,-0.64676 -0.52916,-3.70417 z m 80.7861,0.0693 c 0,-0.67589 0.81766,-0.86323 5.68269,-1.30205 2.21029,-0.19937 6.16183,-0.60423 8.7812,-0.89971 2.61938,-0.29547 6.6675,-0.68904 8.99583,-0.8746 2.32834,-0.18556 5.42396,-0.50846 6.87917,-0.71757 11.1663,-1.60454 11.8176,-1.72813 19.22639,-3.64853 5.59832,-1.45111 5.99912,-1.59782 8.55894,-3.13295 1.68474,-1.01033 3.61189,-3.21417 3.61189,-4.13041 0,-1.88519 -4.1606,-6.99017 -8.29028,-10.17201 -1.16416,-0.89697 -2.67229,-2.13441 -3.35138,-2.74986 -0.6791,-0.61545 -3.41211,-2.8089 -6.07337,-4.87433 -2.66125,-2.06543 -4.93281,-3.9077 -5.0479,-4.09392 -0.11509,-0.18623 -1.1524,-0.3386 -2.30511,-0.3386 -1.58873,0 -2.09585,-0.12288 -2.09585,-0.50787 0,-0.32819 0.45146,-0.5466 1.27607,-0.61736 l 1.27607,-0.10949 -3.12816,-3.18593 c -3.36807,-3.43029 -4.36287,-4.58523 -4.36287,-5.06519 0,-0.16804 -0.25255,-0.51514 -0.56122,-0.77132 -0.66135,-0.54887 -4.07947,-7.286 -4.72957,-9.322 -0.24782,-0.77612 -0.76209,-2.12549 -1.14282,-2.99862 -1.92886,-4.42332 -4.01692,-10.68073 -6.53346,-19.57916 l -0.99769,-3.52778 -2.09854,-0.17639 c -1.63302,-0.13726 -2.12454,-0.31334 -2.21571,-0.79375 -0.10036,-0.52885 0.16815,-0.61736 1.87275,-0.61736 2.216,0 2.19518,0.0595 0.98772,-2.82222 -1.71069,-4.08275 -4.95146,-20.87747 -6.63714,-34.39584 -0.12097,-0.97014 -0.30514,-2.12107 -0.40926,-2.55764 -0.15075,-0.63203 -0.0378,-0.79375 0.55448,-0.79375 0.5885,0 0.7438,0.21735 0.7438,1.04097 0,0.57254 0.14513,1.80285 0.32251,2.73403 0.17738,0.93118 0.50606,3.12181 0.73039,4.86806 0.8726,6.79258 2.77113,17.26064 3.91766,21.60116 0.37064,1.40313 0.67388,2.85834 0.67388,3.23379 0,0.37545 0.12822,0.73556 0.28494,0.80024 0.29776,0.12288 2.08097,5.96112 4.31813,14.13763 0.99892,3.65091 5.66163,17.11709 6.93304,20.02301 1.31126,2.99703 3.59433,7.2259 5.14137,9.52324 1.51475,2.2494 8.74673,9.31196 12.0837,11.80062 2.4296,1.81195 5.62263,4.35975 12.53067,9.99852 2.49157,2.03377 6.01717,6.08659 6.77444,7.78752 1.42378,3.19787 -0.18916,6.28008 -4.32184,8.25871 -2.32021,1.11086 -10.1947,3.53403 -13.40556,4.12521 -2.5954,0.47786 -4.61881,0.86455 -7.34705,1.40406 -1.03345,0.20436 -2.59037,0.37157 -3.45982,0.37157 -0.86946,0 -2.64329,0.15408 -3.94184,0.34239 -4.68305,0.67913 -12.54391,1.52817 -22.99851,2.48402 -2.23132,0.204 -4.65226,0.45922 -5.37986,0.56715 -1.02101,0.15145 -1.32292,0.0771 -1.32292,-0.32569 z M 61.610121,328.58748 v -1.22335 h -9.701389 c -8.388272,0 -9.701388,-0.0716 -9.701388,-0.52917 0,-0.45735 1.297188,-0.52917 9.558027,-0.52917 9.245987,0 9.56402,-0.0229 9.741647,-0.70217 0.145588,-0.55672 0.376238,-0.65626 1.113501,-0.48052 0.511436,0.1219 1.08863,0.34018 1.282658,0.48504 0.194027,0.14488 0.866894,0.37332 1.495259,0.50767 0.628367,0.13435 1.22368,0.37565 1.322923,0.53622 0.09924,0.16058 -0.732377,0.82168 -1.848037,1.46911 -3.229422,1.87408 -3.263201,1.87891 -3.263201,0.46634 z m 51.858329,-3.86919 v -3.35139 h 2.13986 c 1.17692,0 2.44692,0.16434 2.82222,0.36519 0.90605,0.48491 0.89,2.15978 -0.0287,2.99116 -0.69514,0.6291 -0.69632,0.65987 -0.0526,1.37759 1.02333,1.14092 1.21115,1.96884 0.44663,1.96884 -0.36472,0 -1.05552,-0.61641 -1.58143,-1.41111 -0.5685,-0.85906 -1.2079,-1.41111 -1.63438,-1.41111 -0.58213,0 -0.70055,0.23854 -0.70055,1.41111 0,1.17593 -0.11759,1.41111 -0.70556,1.41111 -0.65604,0 -0.70555,-0.23518 -0.70555,-3.35139 z m 4.16407,-1.45649 c 0.0869,-0.60888 -0.11334,-0.78445 -1.05834,-0.92813 -1.4622,-0.22232 -1.69462,-0.083 -1.69462,1.01563 0,0.80396 0.11762,0.87268 1.32292,0.77293 1.03797,-0.0859 1.34599,-0.27124 1.43004,-0.86043 z m 2.96204,4.38455 c -0.23283,-0.23283 -0.42333,-1.08136 -0.42333,-1.8856 0,-1.67024 0.79046,-2.62996 2.16612,-2.62996 1.06982,0 2.41999,1.18861 2.41999,2.13041 0,0.59651 -0.24706,0.69182 -1.79328,0.69182 -1.82848,0 -2.16222,0.42398 -0.9404,1.19468 0.42253,0.26653 0.74547,0.21508 1.21372,-0.19334 0.86921,-0.75815 1.6361,-0.46641 1.15195,0.43823 -0.27033,0.50512 -0.7445,0.67709 -1.8669,0.67709 -0.82749,0 -1.69503,-0.1905 -1.92787,-0.42333 z m 2.66348,-2.83986 c -0.0808,-0.24254 -0.51741,-0.44097 -0.97014,-0.44097 -0.45273,0 -0.8893,0.19843 -0.97014,0.44097 -0.097,0.29088 0.23322,0.44097 0.97014,0.44097 0.73691,0 1.0671,-0.15009 0.97014,-0.44097 z m 2.24314,2.16304 c -0.39206,-1.12467 -0.21449,-2.60957 0.40633,-3.39776 0.19104,-0.24254 0.88352,-0.44098 1.53886,-0.44098 1.03578,0 1.19153,-0.11528 1.19153,-0.88194 0,-0.54877 0.19991,-0.88195 0.52916,-0.88195 0.43324,0 0.52917,0.60757 0.52917,3.35139 v 3.35139 h -1.90577 c -1.81644,0 -1.92374,-0.0516 -2.28928,-1.10015 z m 2.8278,-0.44272 c 0.44781,-0.98284 -0.10033,-2.33768 -0.94578,-2.33768 -0.81424,0 -1.36976,1.52062 -0.88585,2.42482 0.53066,0.99154 1.35808,0.95218 1.83163,-0.0871 z m 3.01355,1.30769 c -0.36728,-0.36728 -0.27587,-4.70371 0.0991,-4.70371 0.18389,0 0.38233,0.81709 0.44097,1.81575 0.19584,3.33481 2.39969,3.24751 2.39969,-0.095 0,-0.94638 0.15875,-1.7207 0.35278,-1.7207 0.20159,0 0.35278,1.05834 0.35278,2.46945 v 2.46944 h -1.70509 c -0.93781,0 -1.81093,-0.10583 -1.94028,-0.23518 z m 5.05548,-0.64939 c -0.49988,-1.31478 -0.43647,-2.3653 0.19739,-3.27026 0.71294,-1.01787 2.61544,-1.06452 3.50112,-0.0859 0.60761,0.67141 0.60714,0.70769 -0.0123,0.94542 -0.38207,0.14661 -0.70069,0.0778 -0.78297,-0.16904 -0.19287,-0.57861 -1.31768,-0.52106 -1.82773,0.0935 -0.55839,0.67281 -0.34341,1.96945 0.40421,2.438 0.45616,0.28589 0.76827,0.21872 1.32508,-0.28519 0.83439,-0.75512 1.41366,-0.45518 0.85202,0.44116 -0.23257,0.37118 -0.93537,0.64188 -1.8406,0.70897 -1.30161,0.0965 -1.50349,0.006 -1.81616,-0.81671 z m 4.79211,0.0908 c -0.39899,-1.9644 -0.47774,-3.95694 -0.18664,-4.7226 0.38647,-1.0165 1.03997,-1.09699 1.03997,-0.12809 0,0.38805 0.15875,0.70555 0.35278,0.70555 0.19403,0 0.35278,0.23813 0.35278,0.52917 0,0.29104 -0.15875,0.52917 -0.35278,0.52917 -0.58791,0 -0.42488,2.81669 0.17639,3.04742 0.83202,0.31928 0.61858,0.83313 -0.34606,0.83313 -0.62468,0 -0.92137,-0.22721 -1.03644,-0.79375 z m 2.33652,-1.5875 c 0.0804,-1.83512 0.22567,-2.38125 0.63348,-2.38125 0.4078,0 0.55309,0.54613 0.63348,2.38125 0.097,2.214 0.0525,2.38125 -0.63348,2.38125 -0.68597,0 -0.73047,-0.16725 -0.63348,-2.38125 z m 2.46792,1.95792 c -0.67167,-0.67167 -0.52593,-3.25502 0.22181,-3.93171 2.08823,-1.88983 5.0954,0.72319 3.7737,3.27908 -0.48859,0.94483 -0.74017,1.07596 -2.06429,1.07596 -0.82934,0 -1.69838,-0.1905 -1.93122,-0.42333 z m 2.73396,-0.79008 c 0.23181,-0.27931 0.37031,-0.95399 0.30778,-1.4993 -0.0843,-0.73534 -0.33121,-1.02223 -0.95573,-1.11053 -0.46313,-0.0655 -0.97663,0.0933 -1.14113,0.35277 -1.01929,1.60809 0.61577,3.67083 1.78908,2.25706 z m 2.48715,-1.17933 v -2.39272 l 1.6407,-0.0714 c 2.06246,-0.0898 2.56622,0.49661 2.58142,3.00476 0.009,1.41609 -0.11335,1.85208 -0.51795,1.85208 -0.38033,0 -0.52917,-0.38877 -0.52917,-1.38226 0,-1.75909 -0.2867,-2.49829 -0.96899,-2.49829 -0.83636,0 -1.47687,1.10001 -1.48923,2.55764 -0.006,0.7276 -0.16997,1.32291 -0.364,1.32291 -0.20051,0 -0.35278,-1.03276 -0.35278,-2.39272 z m -126.808086,0.16342 c 0.11295,-0.45 0.63581,-2.07576 1.16191,-3.61281 1.15539,-3.37549 1.81595,-3.72594 2.8278,-1.50025 1.08155,2.37903 2.11872,5.51055 1.89815,5.73111 -0.44942,0.44943 -0.85143,0.13474 -1.34891,-1.05591 -0.46596,-1.11519 -0.65187,-1.24378 -1.6577,-1.14653 -0.88121,0.0852 -1.25043,0.36252 -1.66205,1.24842 -0.62073,1.33597 -1.53329,1.58744 -1.2192,0.33597 z m 3.51188,-2.70897 c 0.26421,-0.4275 -0.67252,-1.85596 -1.0014,-1.52708 -0.12812,0.12812 -0.23294,0.60336 -0.23294,1.05609 0,0.83264 0.81793,1.14475 1.23434,0.47099 z m 3.35177,0.91072 c 0,-2.17653 0.10152,-2.67523 0.54462,-2.67523 0.44998,0 0.52661,0.43958 0.44097,2.52942 -0.0669,1.63172 -0.26015,2.58117 -0.54462,2.67524 -0.32683,0.10806 -0.44097,-0.54666 -0.44097,-2.52943 z m 2.46944,-0.0294 v -2.64584 H 34.9754 c 0.862344,0 1.234722,0.15959 1.234722,0.52917 0,0.29104 -0.300517,0.52917 -0.667812,0.52917 -0.824872,-10e-6 -1.096076,0.66179 -1.096076,2.67467 0,0.85726 -0.15875,1.55865 -0.35278,1.55865 -0.20383,0 -0.35278,-1.11713 -0.35278,-2.64583 z M 143.6971,322.19737 c -0.46006,-0.46006 -0.24042,-0.83051 0.49242,-0.83051 0.41054,0 0.67331,0.18492 0.59531,0.41893 -0.17184,0.51553 -0.76089,0.73841 -1.08773,0.41157 z m 179.32134,-3.95659 c 0,-2.39166 -0.0106,-2.41851 -0.88194,-2.25192 -0.48507,0.0927 -0.88195,0.0685 -0.88195,-0.0539 0,-0.29441 2.21831,-2.3056 2.55764,-2.31887 0.14552,-0.006 0.26459,1.57716 0.26459,3.51744 0,2.90062 -0.0941,3.52778 -0.52917,3.52778 -0.41896,0 -0.52917,-0.50413 -0.52917,-2.42053 z m 3.75885,1.77539 c -0.89115,-0.98472 -0.81033,-4.77281 0.12171,-5.70486 0.88148,-0.88147 2.52638,-0.91162 3.29671,-0.0604 0.80052,0.88457 0.82155,5.06397 0.0296,5.85605 -0.7584,0.7584 -2.7263,0.70659 -3.44791,-0.0908 z m 3.05664,-1.77057 c 0.29736,-1.48679 -0.35599,-3.58151 -1.11707,-3.58151 -1.04778,0 -1.46508,0.7687 -1.46508,2.69886 0,1.38662 0.15289,1.93775 0.60826,2.19258 0.86423,0.48365 1.73012,-0.091 1.97389,-1.30993 z m 2.18941,1.37489 c -1.07311,-2.07517 -0.42696,-5.49936 1.11055,-5.88525 2.12534,-0.53342 3.26757,1.27604 2.83612,4.49281 -0.24705,1.84182 -0.78811,2.43326 -2.22599,2.43326 -0.95261,0 -1.28708,-0.20231 -1.72068,-1.04082 z m 2.84074,-0.8838 c 0.63582,-2.53325 -0.68064,-5.06829 -1.84012,-3.54344 -0.64174,0.84398 -0.47639,3.97622 0.23308,4.41469 0.67035,0.41429 1.38113,0.029 1.60704,-0.87125 z m 2.46186,1.14057 c -0.61235,-0.87425 -0.73201,-3.62796 -0.2166,-4.98363 0.62509,-1.6441 3.09848,-1.67309 3.8403,-0.045 0.5896,1.29406 0.51375,4.10112 -0.13592,5.02864 -0.38368,0.54776 -0.90922,0.78405 -1.74389,0.78405 -0.83467,0 -1.3602,-0.23629 -1.74389,-0.78405 z m 2.80649,-1.77359 c 0.37335,-2.50037 -0.68555,-4.2047 -1.87399,-3.01625 -0.44288,0.44289 -0.57788,2.99674 -0.2092,3.95754 0.11776,0.30691 0.58431,0.55802 1.03671,0.55802 0.69744,0 0.85665,-0.2281 1.04648,-1.49931 z m 11.10823,0.12122 c 0,-2.26273 -0.0503,-2.42326 -0.70555,-2.25191 -1.05615,0.27619 -0.84526,-0.63857 0.36812,-1.59687 0.56907,-0.44942 1.19528,-0.71787 1.3916,-0.59654 0.19996,0.12357 0.35695,1.68547 0.35695,3.55117 0,3.09538 -0.0498,3.33057 -0.70556,3.33057 -0.63743,0 -0.70556,-0.23519 -0.70556,-2.43642 z m 5.99723,1.55447 c 0,-0.79375 -0.14112,-0.88194 -1.41112,-0.88194 -1.04969,0 -1.41111,-0.14247 -1.41111,-0.55628 0,-0.74026 2.75181,-4.559 3.28521,-4.559 0.26462,0 0.45882,0.77668 0.52712,2.1082 0.0595,1.15951 0.29764,2.24316 0.52917,2.40811 0.32339,0.23038 0.31877,0.34139 -0.0201,0.47883 -0.24253,0.0984 -0.44097,0.56258 -0.44097,1.03148 0,0.52263 -0.20479,0.85255 -0.52917,0.85255 -0.32925,0 -0.52917,-0.33318 -0.52917,-0.88195 z m -0.004,-2.91041 -0.004,-1.32292 -0.7009,1.05833 c -0.8811,1.3304 -0.8811,1.5875 0,1.5875 0.58053,0 0.70513,-0.23441 0.70323,-1.32291 z m 3.18879,3.27703 c -0.57273,-0.69014 -0.85972,-3.02312 -0.56504,-4.59384 0.42767,-2.27979 3.20763,-2.64468 4.08118,-0.53568 0.51763,1.24969 0.31168,4.31525 -0.3429,5.10398 -0.56995,0.68677 -2.6108,0.7032 -3.17324,0.0255 z m 2.6536,-1.75607 c 0.31171,-1.66168 0.0667,-3.0717 -0.60703,-3.4934 -0.99455,-0.62251 -1.70526,0.3173 -1.70526,2.25502 0,2.75403 1.84277,3.74097 2.31229,1.23838 z m 2.85767,1.62626 c -0.41942,-0.46344 -0.58384,-1.30235 -0.58384,-2.97861 0,-2.01142 0.10819,-2.40926 0.78404,-2.88264 1.0437,-0.73104 2.15057,-0.69397 2.86544,0.096 0.67402,0.74479 0.82127,4.60206 0.21865,5.72805 -0.48059,0.89798 -2.48475,0.92069 -3.28429,0.0372 z m 2.75534,-1.76867 c 0.22549,-1.02677 0.0635,-2.57676 -0.33698,-3.22481 -0.12188,-0.19724 -0.52228,-0.3586 -0.88977,-0.3586 -1.23278,0 -1.67697,3.49457 -0.61563,4.84328 0.51731,0.65739 1.58104,-0.07 1.84238,-1.25987 z m 8.76173,1.62006 c -1.38832,-1.52616 -1.20403,-4.64181 0.33852,-5.72224 1.5784,-1.10556 4.4939,-0.35046 4.4939,1.16391 0,0.60841 -0.97314,0.50276 -1.33565,-0.145 -0.49061,-0.87669 -2.24656,-0.50221 -2.869,0.61186 -0.39896,0.71407 -0.44338,1.25707 -0.18754,2.29306 0.29676,1.20158 0.47117,1.37045 1.51913,1.47077 0.88085,0.0843 1.31494,-0.0737 1.6957,-0.61736 0.50831,-0.72573 1.53014,-1.00987 1.53014,-0.42549 0,0.16786 -0.32904,0.72348 -0.73117,1.23472 -0.98376,1.25065 -3.37354,1.3235 -4.45403,0.13577 z M 31.270764,319.74997 c 0,-0.30722 0.18851,-0.49573 0.41892,-0.41893 0.65413,0.21805 0.76262,0.97749 0.13964,0.97749 -0.30721,0 -0.55856,-0.25135 -0.55856,-0.55856 z m 311.590956,-1.6463 c 0.0998,-0.29933 0.97797,-0.44097 2.73403,-0.44097 1.75606,0 2.63426,0.14164 2.73403,0.44097 0.10961,0.32878 -0.586,0.44097 -2.73403,0.44097 -2.14803,0 -2.84364,-0.11219 -2.73403,-0.44097 z m 30.50208,-2.24746 c -0.44848,-0.44847 -0.26599,-1.79917 0.30734,-2.275 0.80455,-0.6677 1.73433,0.028 1.73433,1.29771 0,0.82928 -0.16729,1.0394 -0.89514,1.12428 -0.49233,0.0574 -1.00827,-0.009 -1.14653,-0.14699 z m 1.33612,-0.83935 c 0.3799,-0.61467 -0.1832,-1.13907 -0.73308,-0.68271 -0.27164,0.22543 -0.40689,0.55064 -0.30056,0.72269 0.25735,0.41639 0.76369,0.39681 1.03364,-0.04 z m -264.73411,-6.92674 c -1.32598,-1.6857 -0.8067,-4.95134 0.91184,-5.73436 1.87924,-0.85624 4.35422,-0.0649 4.35422,1.39222 0,0.87799 -0.42832,0.87106 -1.23472,-0.02 -0.73156,-0.80837 -1.83739,-0.89512 -2.73403,-0.21448 -0.96134,0.72977 -0.85122,3.53844 0.16669,4.25142 1.12731,0.78959 1.88358,0.68059 2.72824,-0.39322 0.54712,-0.69555 0.84476,-0.83889 1.13638,-0.54728 0.29162,0.29162 0.24064,0.63085 -0.19464,1.29516 -0.51181,0.78112 -0.84169,0.90006 -2.49628,0.90006 -1.63948,0 -2.00896,-0.1302 -2.6377,-0.92952 z m 6.67226,0.39444 c -0.76537,-0.92221 -0.55699,-3.3813 0.34867,-4.11466 0.9223,-0.74684 1.41101,-0.79169 2.62069,-0.24052 1.59326,0.72594 1.88557,3.70223 0.45307,4.6131 -0.73512,0.46742 -2.95957,0.29978 -3.42243,-0.25792 z m 2.75658,-0.59381 c 0.58955,-0.58955 0.52925,-2.22459 -0.10134,-2.74793 -0.69644,-0.578 -1.50481,-0.22829 -2.0038,0.86688 -0.3369,0.73943 -0.2972,1.01029 0.23412,1.5974 0.73191,0.80875 1.26509,0.88958 1.87102,0.28365 z m 2.54,-1.29646 c 0,-2.41268 0.005,-2.42645 1.05848,-2.63704 0.58217,-0.11643 1.43514,-0.0685 1.89549,0.10653 0.52011,0.19775 0.9682,0.18703 1.18354,-0.0283 0.55367,-0.55367 2.12492,0.0271 2.35073,0.86892 0.1127,0.42013 0.20707,1.51793 0.20972,2.43957 0.004,1.2309 -0.13097,1.67569 -0.50675,1.67569 -0.37519,0 -0.53976,-0.5398 -0.61736,-2.02504 -0.0786,-1.50448 -0.24833,-2.05214 -0.66026,-2.13042 -0.69802,-0.13265 -1.38581,1.32518 -1.38581,2.93735 0,0.66997 -0.15875,1.21812 -0.35278,1.21812 -0.19403,0 -0.35278,-0.77431 -0.35278,-1.72069 0,-2.09372 -0.81799,-3.0955 -1.62567,-1.99093 -0.27005,0.36931 -0.491,1.35551 -0.491,2.19155 0,0.83604 -0.15875,1.52007 -0.35277,1.52007 -0.20098,0 -0.35278,-1.04363 -0.35278,-2.42535 z m 7.76111,-1.10243 c 0,-2.11666 0.14111,-3.52777 0.35278,-3.52777 0.19403,0 0.35278,0.47927 0.35278,1.06505 0,0.92456 0.1047,1.04046 0.79375,0.87862 2.04621,-0.48061 3.48086,1.72198 2.55888,3.92859 -0.46843,1.1211 -0.58806,1.18329 -2.2763,1.18329 h -1.78189 z m 2.88264,2.23838 c 0.35483,-0.32111 0.64009,-0.83705 0.63392,-1.14653 -0.0161,-0.80597 -0.8515,-1.7974 -1.51457,-1.7974 -1.08707,0 -1.72155,2.25599 -0.8731,3.10444 0.57113,0.57113 0.98739,0.53304 1.75375,-0.16051 z m 2.64421,1.05422 c -0.37966,-0.37966 -0.27156,-4.70371 0.11759,-4.70371 0.19403,0 0.35278,0.68404 0.35278,1.52008 0,1.76936 0.68556,2.93179 1.53649,2.60526 0.44163,-0.16947 0.58018,-0.68863 0.58018,-2.17399 0,-1.71616 0.085,-1.95135 0.70555,-1.95135 0.63836,0 0.70556,0.23519 0.70556,2.46945 v 2.46944 h -1.88101 c -1.03482,0 -1.98732,-0.10583 -2.11667,-0.23518 z m 5.04455,-0.30894 c -0.35627,-0.42927 -0.36038,-0.63403 -0.0194,-0.97013 0.33822,-0.33344 0.53125,-0.29186 0.88824,0.19134 0.49743,0.67327 1.44662,0.81928 1.78343,0.27432 0.1166,-0.18867 -0.38997,-0.62553 -1.12571,-0.9708 -2.53912,-1.19157 -1.55673,-3.94165 1.05353,-2.94923 1.01429,0.38564 1.32991,1.44084 0.43096,1.44084 -0.29104,0 -0.52916,-0.15875 -0.52916,-0.35277 0,-0.19403 -0.3175,-0.35278 -0.70556,-0.35278 -1.23725,0 -0.75754,0.93108 0.70556,1.36943 1.21774,0.36485 1.41111,0.56069 1.41111,1.42921 0,0.5923 -0.22962,1.09454 -0.55802,1.22056 -1.03987,0.39904 -2.88111,0.21685 -3.33494,-0.32999 z m 5.1464,0.10315 c -0.37983,-1.23586 -0.50082,-4.98503 -0.1802,-5.58411 0.4571,-0.8541 1.04342,-0.87809 1.04342,-0.0427 0,0.34925 0.19844,0.84535 0.44098,1.10243 0.35277,0.37395 0.35277,0.49977 0,0.62912 -0.52905,0.19399 -0.60415,3.13541 -0.0882,3.45429 0.60017,0.37093 0.38935,0.88194 -0.36385,0.88194 -0.39415,0 -0.77762,-0.19844 -0.85216,-0.44097 z m 2.27434,-2.02847 c 0,-1.95988 0.10919,-2.46945 0.52916,-2.46945 0.41998,0 0.52917,0.50957 0.52917,2.46945 0,1.95988 -0.10919,2.46944 -0.52917,2.46944 -0.41997,0 -0.52916,-0.50956 -0.52916,-2.46944 z m 2.46735,1.93776 c -0.2427,-0.29243 -0.4583,-1.18142 -0.47912,-1.97554 -0.0293,-1.1172 0.14942,-1.5955 0.78993,-2.11415 1.06527,-0.8626 1.84114,-0.84684 2.99509,0.0609 0.99869,0.78556 1.19963,2.04024 0.58548,3.65559 -0.29741,0.78223 -0.55461,0.90491 -1.89708,0.90491 -0.95338,0 -1.72342,-0.20529 -1.9943,-0.53168 z m 2.75376,-0.59721 c 0.23283,-0.23283 0.42333,-0.83608 0.42333,-1.34055 0,-1.67764 -1.73037,-2.43931 -2.45703,-1.08153 -0.51223,0.9571 -0.45529,1.64659 0.18917,2.29105 0.66288,0.66288 1.26958,0.70598 1.84453,0.13103 z m 2.36361,-1.30871 v -2.43759 l 1.17132,-0.19008 c 0.64422,-0.10455 1.55703,-0.0434 2.02847,0.13581 0.78681,0.29914 0.85715,0.51479 0.85715,2.62768 0,1.81084 -0.11286,2.30178 -0.52916,2.30178 -0.4066,0 -0.52917,-0.452 -0.52917,-1.95135 0,-1.4164 -0.1463,-2.00749 -0.53366,-2.15613 -0.96265,-0.3694 -1.58301,0.56595 -1.58301,2.38679 0,1.14137 -0.14846,1.72069 -0.44097,1.72069 -0.31023,0 -0.44097,-0.7227 -0.44097,-2.4376 z M 36.915677,302.90752 c 0,-0.25721 0.396875,-0.84051 0.881945,-1.29621 0.882787,-0.82934 1.174185,-1.76389 0.549987,-1.76389 -0.182576,0 -0.430071,0.15875 -0.549987,0.35278 -0.254314,0.41148 -0.884439,0.47489 -0.876544,0.0882 0.03013,-1.47548 2.464044,-1.4244 2.464044,0.0517 0,0.45762 -0.238125,1.02965 -0.529167,1.2712 -0.291042,0.24154 -0.529167,0.57848 -0.529167,0.74875 0,0.17027 0.238125,0.30958 0.529167,0.30958 0.291042,0 0.529167,0.15875 0.529167,0.35278 0,0.19403 -0.555625,0.35278 -1.234722,0.35278 -0.790187,0 -1.234723,-0.16838 -1.234723,-0.46768 z m 32.455555,0 c 0,-0.25721 0.396875,-0.84051 0.881944,-1.29621 0.987312,-0.92753 1.154582,-1.76389 0.352778,-1.76389 -0.291042,0 -0.529167,0.15875 -0.529167,0.35278 0,0.19403 -0.15875,0.35278 -0.352777,0.35278 -0.194028,0 -0.352778,-0.23511 -0.352778,-0.52245 0,-0.70356 1.634843,-1.08216 2.297638,-0.53209 0.713493,0.59215 0.658894,1.17641 -0.180971,1.93648 -0.388056,0.35119 -0.705556,0.77266 -0.705556,0.93662 0,0.16395 0.3175,0.2981 0.705556,0.2981 0.388055,0 0.705555,0.15875 0.705555,0.35278 0,0.19403 -0.635,0.35278 -1.411111,0.35278 -0.936671,0 -1.411111,-0.15724 -1.411111,-0.46768 z m 78.316668,-0.44366 c 0,-0.30722 0.18851,-0.49573 0.41892,-0.41893 0.65413,0.21804 0.76262,0.97749 0.13964,0.97749 -0.30721,0 -0.55856,-0.25135 -0.55856,-0.55856 z M 12.689624,300.76657 c -0.85089,-0.7319 -0.97925,-1.09373 -0.96092,-2.70863 0.019,-1.67419 0.14251,-1.96519 1.21365,-2.85942 1.37621,-1.14891 2.64616,-1.25311 3.7768,-0.3099 0.9028,0.75315 1.05567,1.7838 0.26458,1.7838 -0.29104,0 -0.52917,-0.16215 -0.52917,-0.36034 0,-0.19819 -0.39986,-0.54253 -0.88857,-0.76521 -0.78251,-0.35653 -1.01412,-0.28458 -1.94028,0.60274 -1.2799,1.22622 -1.34063,2.38262 -0.18579,3.53745 1.04994,1.04995 1.98536,1.10279 2.83825,0.16036 0.7429,-0.82089 1.5875,-0.92836 1.5875,-0.20199 0,0.81911 -1.76546,1.96588 -3.02651,1.96588 -0.72299,0 -1.54137,-0.32162 -2.14954,-0.84474 z m 18.58161,0.59446 c -1.36017,-0.50012 -1.76389,-1.25868 -1.76389,-3.31422 0,-1.90336 0.0812,-2.10597 1.17983,-2.94394 1.31411,-1.00232 2.11708,-1.10895 3.48602,-0.46292 1.225976,0.57857 2.036928,2.01713 2.036928,3.61334 0,2.3929 -2.538628,3.99031 -4.938888,3.10774 z m 3.16125,-1.58013 c 1.182149,-1.26888 0.816823,-3.35942 -0.7319,-4.18827 -0.983,-0.52609 -2.56032,0.13597 -3.08914,1.29662 -0.5435,1.19285 -0.51029,1.45759 0.33103,2.63913 0.90416,1.26977 2.43885,1.38082 3.49001,0.25252 z m 21.858835,0.79921 c -0.762293,-0.76229 -1.031198,-1.3663 -1.031198,-2.31625 0,-2.13368 1.45801,-4.02557 3.120542,-4.04915 1.006224,-0.0143 2.87668,1.25531 2.87668,1.95256 0,0.70649 -0.565562,0.62977 -1.73586,-0.23547 -0.829458,-0.61324 -1.133253,-0.67022 -1.766489,-0.33132 -0.97421,0.52138 -1.528283,1.9678 -1.246047,3.25283 0.369426,1.68197 2.586934,2.32671 3.419154,0.99411 0.434559,-0.69584 1.68202,-0.99315 1.68202,-0.40088 0,0.16757 -0.418521,0.72319 -0.930049,1.23472 -1.304481,1.30448 -3.022727,1.26488 -4.388753,-0.10115 z m 6.746942,0.0442 c -2.871929,-2.87193 0.400847,-8.01296 3.717582,-5.83975 2.993016,1.9611 2.249513,6.25899 -1.161919,6.71656 -1.311822,0.17595 -1.602691,0.0762 -2.555663,-0.87681 z m 3.432252,-0.62047 c 1.17468,-0.82278 1.094419,-3.03605 -0.145468,-4.01134 -1.181442,-0.92932 -1.385086,-0.91807 -2.437902,0.13475 -1.064782,1.06478 -1.126465,2.60193 -0.146611,3.65368 0.849044,0.91134 1.653342,0.97701 2.729981,0.22291 z m -43.087579,0.30439 c -0.12407,-0.12408 -0.22559,-0.5056 -0.22559,-0.84782 0,-0.36883 -0.312,-0.66813 -0.76612,-0.73495 -1.05767,-0.15563 -1.21898,-0.91468 -0.22435,-1.05567 0.59474,-0.0843 0.8447,-0.38242 0.92773,-1.10645 0.14117,-1.23116 0.90316,-1.06921 1.05631,0.22451 0.0879,0.74273 0.30015,0.94293 0.99954,0.94293 1.08614,0 0.94527,0.83077 -0.16866,0.99468 -0.47323,0.0696 -0.76612,0.36512 -0.76612,0.77293 0,0.71576 -0.46986,1.17271 -0.83274,0.80984 z m 25.162154,-0.6224 c 0.367259,-0.44253 0.01591,-0.52879 -2.514445,-0.61736 -1.657078,-0.058 -2.941355,-0.257 -2.941355,-0.45574 0,-0.19875 1.284277,-0.39774 2.941355,-0.45574 2.530363,-0.0886 2.881704,-0.17484 2.514445,-0.61736 -0.590398,-0.71139 0.254473,-0.69147 1.721944,0.0406 1.449881,0.7233 1.410462,1.47318 -0.110857,2.10883 -1.617529,0.67585 -2.173746,0.67473 -1.611087,-0.003 z m 41.287254,-2.48421 c 0,-0.4161 0.48997,-0.52917 2.293056,-0.52917 1.803086,0 2.293055,0.11307 2.293055,0.52917 0,0.41609 -0.489969,0.52916 -2.293055,0.52916 -1.803086,0 -2.293056,-0.11307 -2.293056,-0.52916 z m 7.055556,0 c 0,-0.46185 0.353222,-0.54516 1.944334,-0.45858 1.069386,0.0582 1.944338,0.26455 1.944338,0.45858 0,0.19402 -0.874952,0.40038 -1.944338,0.45857 -1.591112,0.0866 -1.944334,0.003 -1.944334,-0.45857 z m 6.702772,0 c 0,-0.40623 0.45078,-0.52917 1.94028,-0.52917 1.48951,0 1.94028,0.12294 1.94028,0.52917 0,0.40623 -0.45077,0.52916 -1.94028,0.52916 -1.4895,0 -1.94028,-0.12293 -1.94028,-0.52916 z m 6.59478,0.30357 c -0.52955,-0.52955 0.28799,-0.83274 2.24549,-0.83274 1.62779,0 2.09585,0.11818 2.09585,0.52917 0,0.40989 -0.46384,0.52916 -2.05787,0.52916 -1.13183,0 -2.15939,-0.10152 -2.28347,-0.22559 z m 6.81078,-0.30357 c 0,-0.41158 0.47037,-0.52917 2.11667,-0.52917 1.64629,0 2.11666,0.11759 2.11666,0.52917 0,0.41157 -0.47037,0.52916 -2.11666,0.52916 -1.6463,0 -2.11667,-0.11759 -2.11667,-0.52916 z m 6.70278,0 c 0,-0.40623 0.45077,-0.52917 1.94028,-0.52917 1.4895,0 1.94027,0.12294 1.94027,0.52917 0,0.40623 -0.45077,0.52916 -1.94027,0.52916 -1.48951,0 -1.94028,-0.12293 -1.94028,-0.52916 z m 6.70278,0 c 0,-0.40623 0.45077,-0.52917 1.94027,-0.52917 1.48951,0 1.94028,0.12294 1.94028,0.52917 0,0.40623 -0.45077,0.52916 -1.94028,0.52916 -1.4895,0 -1.94027,-0.12293 -1.94027,-0.52916 z m 6.70277,0 c 0,-0.40623 0.45078,-0.52917 1.94028,-0.52917 1.48951,0 1.94028,0.12294 1.94028,0.52917 0,0.40623 -0.45077,0.52916 -1.94028,0.52916 -1.4895,0 -1.94028,-0.12293 -1.94028,-0.52916 z m 6.35,0 c 0,-0.41158 0.47037,-0.52917 2.11667,-0.52917 1.6463,0 2.11667,0.11759 2.11667,0.52917 0,0.41157 -0.47037,0.52916 -2.11667,0.52916 -1.6463,0 -2.11667,-0.11759 -2.11667,-0.52916 z m 7.05556,0 c 0,-0.41158 0.47037,-0.52917 2.11666,-0.52917 1.6463,0 2.11667,0.11759 2.11667,0.52917 0,0.41157 -0.47037,0.52916 -2.11667,0.52916 -1.64629,0 -2.11666,-0.11759 -2.11666,-0.52916 z m 6.70278,0 c 0,-0.40623 0.45077,-0.52917 1.94027,-0.52917 1.48951,0 1.94028,0.12294 1.94028,0.52917 0,0.40623 -0.45077,0.52916 -1.94028,0.52916 -1.4895,0 -1.94027,-0.12293 -1.94027,-0.52916 z m 6.70277,0 c 0,-0.40623 0.45078,-0.52917 1.94028,-0.52917 1.48951,0 1.94028,0.12294 1.94028,0.52917 0,0.40623 -0.45077,0.52916 -1.94028,0.52916 -1.4895,0 -1.94028,-0.12293 -1.94028,-0.52916 z m 6.4368,0.0882 c 0.0901,-0.27304 0.97458,-0.48097 2.32245,-0.546 1.77487,-0.0856 2.17686,-0.004 2.17686,0.44097 0,0.43753 -0.46141,0.546 -2.32245,0.546 -1.70043,0 -2.28346,-0.1181 -2.17686,-0.44097 z m 6.96876,-0.0882 c 0,-0.40623 0.45077,-0.52917 1.94028,-0.52917 1.4895,0 1.94027,0.12294 1.94027,0.52917 0,0.40623 -0.45077,0.52916 -1.94027,0.52916 -1.48951,0 -1.94028,-0.12293 -1.94028,-0.52916 z m 20.10833,0 c 0,-0.41158 0.47037,-0.52917 2.11667,-0.52917 1.64629,0 2.11666,0.11759 2.11666,0.52917 0,0.41157 -0.47037,0.52916 -2.11666,0.52916 -1.6463,0 -2.11667,-0.11759 -2.11667,-0.52916 z m 6.70278,0 c 0,-0.40623 0.45077,-0.52917 1.94028,-0.52917 1.4895,0 1.94027,0.12294 1.94027,0.52917 0,0.40623 -0.45077,0.52916 -1.94027,0.52916 -1.48951,0 -1.94028,-0.12293 -1.94028,-0.52916 z m 6.70278,0 c 0,-0.41158 0.47037,-0.52917 2.11666,-0.52917 1.6463,0 2.11667,0.11759 2.11667,0.52917 0,0.41157 -0.47037,0.52916 -2.11667,0.52916 -1.64629,0 -2.11666,-0.11759 -2.11666,-0.52916 z m 6.70277,0 c 0,-0.40623 0.45078,-0.52917 1.94028,-0.52917 1.48951,0 1.94028,0.12294 1.94028,0.52917 0,0.40623 -0.45077,0.52916 -1.94028,0.52916 -1.4895,0 -1.94028,-0.12293 -1.94028,-0.52916 z m 6.46759,0 c 0,-0.4099 0.46384,-0.52917 2.05788,-0.52917 1.59403,0 2.05787,0.11927 2.05787,0.52917 0,0.40989 -0.46384,0.52916 -2.05787,0.52916 -1.59404,0 -2.05788,-0.11927 -2.05788,-0.52916 z m 6.58519,0 c 0,-0.41158 0.47037,-0.52917 2.11667,-0.52917 1.6463,0 2.11666,0.11759 2.11666,0.52917 0,0.41157 -0.47036,0.52916 -2.11666,0.52916 -1.6463,0 -2.11667,-0.11759 -2.11667,-0.52916 z m 13.75833,0 c 0,-0.40623 0.45077,-0.52917 1.94028,-0.52917 1.4895,0 1.94028,0.12294 1.94028,0.52917 0,0.40623 -0.45078,0.52916 -1.94028,0.52916 -1.48951,0 -1.94028,-0.12293 -1.94028,-0.52916 z m 6.35,0 c 0,-0.4161 0.48997,-0.52917 2.29306,-0.52917 1.80308,0 2.29305,0.11307 2.29305,0.52917 0,0.41609 -0.48997,0.52916 -2.29305,0.52916 -1.80309,0 -2.29306,-0.11307 -2.29306,-0.52916 z m 7.05556,0 c 0,-0.40623 0.45077,-0.52917 1.94027,-0.52917 1.48951,0 1.94028,0.12294 1.94028,0.52917 0,0.40623 -0.45077,0.52916 -1.94028,0.52916 -1.4895,0 -1.94027,-0.12293 -1.94027,-0.52916 z m 6.70277,0 c 0,-0.40623 0.45078,-0.52917 1.94028,-0.52917 1.48951,0 1.94028,0.12294 1.94028,0.52917 0,0.40623 -0.45077,0.52916 -1.94028,0.52916 -1.4895,0 -1.94028,-0.12293 -1.94028,-0.52916 z m 6.70278,0 c 0,-0.40623 0.45077,-0.52917 1.94028,-0.52917 1.4895,0 1.94028,0.12294 1.94028,0.52917 0,0.40623 -0.45078,0.52916 -1.94028,0.52916 -1.48951,0 -1.94028,-0.12293 -1.94028,-0.52916 z m 6.70278,0 c 0,-0.40623 0.45077,-0.52917 1.94028,-0.52917 1.4895,0 1.94027,0.12294 1.94027,0.52917 0,0.40623 -0.45077,0.52916 -1.94027,0.52916 -1.48951,0 -1.94028,-0.12293 -1.94028,-0.52916 z m 6.35,0 c 0,-0.41158 0.47037,-0.52917 2.11666,-0.52917 1.6463,0 2.11667,0.11759 2.11667,0.52917 0,0.41157 -0.47037,0.52916 -2.11667,0.52916 -1.64629,0 -2.11666,-0.11759 -2.11666,-0.52916 z m -98.07222,-10.01306 c 0,-5.5297 -0.0474,-5.96847 -0.66229,-6.12927 -0.60997,-0.15951 -0.55436,-0.39969 0.70367,-3.03975 0.75128,-1.57661 1.48587,-2.86577 1.63243,-2.8648 0.27701,0.002 1.88012,4.78027 1.86346,5.55448 -0.005,0.25268 -0.4614,0.44098 -1.06782,0.44098 h -1.05834 v 5.99722 c 0,5.76204 -0.0277,5.99722 -0.70555,5.99722 -0.6777,0 -0.70556,-0.23518 -0.70556,-5.95608 z m -52.77468,0.57622 c -0.36111,-1.21267 -0.71116,-2.4033 -0.77791,-2.64583 -0.0667,-0.24254 0.1284,-0.44098 0.43367,-0.44098 0.49486,0 0.55504,-1.41512 0.55504,-13.05277 0,-12.8176 0.0127,-13.05278 0.70555,-13.05278 0.69284,0 0.70556,0.23518 0.70556,13.05278 v 13.05277 h 1.05833 c 0.58208,0 1.05833,0.11655 1.05833,0.25899 0,0.64175 -2.33489,4.99829 -2.68754,5.01452 -0.21696,0.01 -0.68993,-0.97403 -1.05103,-2.1867 z M 295.4665,273.00103 c -0.96876,-0.96876 -0.33745,-1.8225 0.67208,-0.90889 1.22449,1.10815 2.6836,0.34166 2.28092,-1.1982 -0.22557,-0.86254 -0.99005,-1.09213 -2.04145,-0.61308 -0.48359,0.22034 -0.96491,0.31496 -1.0696,0.21027 -0.10468,-0.10468 -0.0607,-0.96391 0.0979,-1.90939 l 0.28819,-1.71904 h 1.72632 c 2.10734,0 2.65556,0.78305 0.66339,0.94754 -0.94275,0.0778 -1.37665,0.29441 -1.45885,0.72815 -0.0898,0.47366 0.12265,0.61736 0.91253,0.61736 1.25167,0 2.19721,0.96079 2.19721,2.23264 0,2.0867 -2.75409,3.12716 -4.26861,1.61264 z m 5.55801,0.0957 c -0.86191,-0.9524 -0.81902,-5.0299 0.0613,-5.82657 0.85202,-0.77107 2.2774,-0.74198 3.00435,0.0613 0.86192,0.9524 0.81902,5.0299 -0.0613,5.82657 -0.85202,0.77107 -2.27739,0.74198 -3.00435,-0.0613 z m 2.58622,-1.45961 c 0.29764,-0.71857 0.33454,-1.46462 0.11776,-2.38125 -0.25942,-1.09693 -0.47022,-1.33483 -1.18281,-1.33483 -0.72739,0 -0.91459,0.22741 -1.16161,1.41111 -0.58083,2.7833 1.24545,4.67382 2.22666,2.30497 z m 2.54494,1.68142 c -0.25657,-0.25657 -0.42334,-1.50243 -0.42334,-3.16259 0,-2.34717 0.0977,-2.79152 0.68237,-3.10444 2.04382,-1.09383 3.55097,0.24848 3.55097,3.16259 0,1.50863 -0.17225,2.1685 -0.7193,2.7557 -0.78532,0.84293 -2.41287,1.02658 -3.0907,0.34874 z m 2.49356,-1.80046 c 0.18124,-0.54399 0.22532,-1.54452 0.098,-2.2234 -0.43971,-2.34386 -2.3093,-1.83136 -2.3093,0.63303 0,2.63972 1.50186,3.71985 2.21134,1.59037 z m 10.49211,1.07727 c 0.004,-0.63059 0.39145,-1.97997 0.86572,-2.99862 l 0.86226,-1.85208 h -1.42427 c -2.06308,0 -1.58334,-0.85291 0.55753,-0.99124 2.75477,-0.178 2.83062,-0.0403 1.43101,2.59798 -0.68055,1.28283 -1.23737,2.79548 -1.23737,3.36145 0,0.67951 -0.17974,1.02903 -0.52917,1.02903 -0.36251,0 -0.52807,-0.36104 -0.52571,-1.14652 z m 4.81373,0.50138 c -0.80053,-0.88456 -0.82155,-5.06397 -0.0296,-5.85605 0.82286,-0.82284 2.47767,-0.7014 3.12981,0.22969 0.81319,1.16101 0.74973,4.92231 -0.096,5.68766 -0.85203,0.77107 -2.27739,0.74198 -3.00436,-0.0613 z m 2.66858,-1.73611 c 0.70083,-2.71897 -1.27673,-5.03752 -2.15293,-2.52413 -0.48418,1.38895 -0.48962,1.78562 -0.0406,2.9666 0.51107,1.34425 1.80001,1.08425 2.19353,-0.44247 z m 2.4328,1.47104 c -1.36289,-1.73262 -0.80226,-5.58801 0.87372,-6.00865 1.96127,-0.49224 2.95564,0.64865 2.95564,3.39109 0,2.22448 -0.63246,3.32639 -1.98532,3.45889 -0.84558,0.0828 -1.26909,-0.11042 -1.84404,-0.84133 z m 2.61362,-0.51478 c 0.12464,-0.20166 0.22662,-1.08735 0.22662,-1.96821 0,-1.9291 -0.9362,-3.28894 -1.72275,-2.50237 -0.67165,0.67164 -0.93102,2.71866 -0.48997,3.8671 0.37719,0.98216 1.53469,1.33387 1.9861,0.60348 z m 9.66611,0.51463 c -0.66188,-0.70455 -0.85524,-1.2963 -0.85524,-2.61741 0,-2.31889 1.09033,-3.52778 3.18181,-3.52778 1.43888,0 2.63903,0.76132 2.63903,1.67407 0,0.7533 -0.8859,0.66126 -1.53117,-0.15908 -0.71987,-0.91515 -1.81437,-0.84163 -2.61397,0.17555 -0.61945,0.788 -0.54991,3.08903 0.11338,3.75231 0.77156,0.77156 2.1753,0.69303 2.70252,-0.15119 0.55274,-0.88509 1.32924,-0.91703 1.32924,-0.0547 0,1.89089 -3.44968,2.52183 -4.9656,0.9082 z M 311.024,271.09604 c 0,-0.42627 0.54877,-0.52917 2.82222,-0.52917 2.27344,0 2.82222,0.1029 2.82222,0.52917 0,0.42627 -0.54878,0.52917 -2.82222,0.52917 -2.27345,0 -2.82222,-0.1029 -2.82222,-0.52917 z m 25.54573,-2.8188 c -0.31238,-1.24464 0.68559,-2.032 1.88369,-1.48612 0.60869,0.27733 0.79936,0.61619 0.72182,1.28258 -0.0855,0.73471 -0.31955,0.92637 -1.23984,1.01532 -0.96992,0.0937 -1.16794,-0.024 -1.36567,-0.81178 z m 1.77948,-0.15543 c 0.26088,-0.42214 -0.40273,-0.8404 -0.87263,-0.54999 -0.39455,0.24383 -0.13554,0.87839 0.35853,0.87839 0.17113,0 0.40248,-0.14779 0.5141,-0.3284 z M 49.615677,261.12225 c 0,-0.14982 0.486558,-0.86268 1.081236,-1.58413 0.594681,-0.72145 0.973638,-1.48582 0.84213,-1.69861 -0.172184,-0.2786 -0.346456,-0.27955 -0.622629,-0.004 -0.533255,0.53326 -0.947959,0.47865 -0.947959,-0.12483 0,-0.72079 0.6055,-1.00437 1.607552,-0.75287 1.081221,0.27137 1.163471,1.58449 0.156337,2.49594 -0.388056,0.35118 -0.705556,0.77266 -0.705556,0.93662 0,0.16395 0.3175,0.2981 0.705556,0.2981 0.388055,0 0.705555,0.15875 0.705555,0.35278 0,0.19403 -0.635,0.35278 -1.411111,0.35278 -0.776111,0 -1.411111,-0.12258 -1.411111,-0.27241 z m -29.707263,-4.75468 -0.10246,-2.91042 -1.14653,-0.11055 c -0.71018,-0.0685 -1.14652,-0.30343 -1.14652,-0.61736 0,-0.39833 0.60408,-0.50681 2.82222,-0.50681 2.27345,0 2.82222,0.10289 2.82222,0.52916 0,0.35278 -0.35278,0.52917 -1.05833,0.52917 h -1.05834 v 2.99861 c 0,2.39332 -0.10393,2.99861 -0.5149,2.99861 -0.40145,0 -0.53747,-0.6412 -0.61736,-2.91041 z m 4.17717,2.66273 c -0.37953,-0.37953 -0.24501,-2.05833 0.20065,-2.50398 0.23283,-0.23284 0.86783,-0.42334 1.41111,-0.42334 0.64284,0 0.98778,-0.18478 0.98778,-0.52916 0,-0.63704 -1.43627,-0.71568 -2.04023,-0.11172 -0.58016,0.58016 -1.0161,0.0335 -0.5574,-0.69895 0.46415,-0.74116 2.69576,-0.98807 3.19675,-0.3537 0.19928,0.25235 0.45816,1.42309 0.57527,2.60166 l 0.21294,2.14284 -1.88209,0.0495 c -1.03515,0.0272 -1.9823,-0.0507 -2.10478,-0.17317 z m 1.91717,-0.82306 c 0.3753,-0.20085 0.68237,-0.59773 0.68237,-0.88194 0,-0.62304 -0.0723,-0.62942 -1.21813,-0.10735 -0.91554,0.41714 -1.08298,0.69967 -0.66335,1.11929 0.30944,0.30945 0.39541,0.30013 1.19911,-0.13 z m 3.50459,-1.57509 v -2.64583 h 1.23472 c 1.48564,0 1.70947,0.8953 0.35278,1.41111 -0.77924,0.29626 -0.88194,0.54174 -0.88194,2.10793 0,0.97494 -0.15875,1.77262 -0.35278,1.77262 -0.20383,0 -0.35278,-1.11713 -0.35278,-2.64583 z m 13.758333,-0.88194 c 0,-2.83488 0.09975,-3.52778 0.50787,-3.52778 0.332225,0 0.54574,0.45753 0.617361,1.32291 0.105988,1.2806 0.156742,1.32636 1.586357,1.4303 l 1.476865,0.10739 0.110635,-1.33917 c 0.07864,-0.95192 0.29295,-1.37374 0.741112,-1.4587 0.576209,-0.10923 0.62176,0.179 0.529166,3.34846 -0.08187,2.80243 -0.202865,3.46798 -0.630477,3.46798 -0.371468,0 -0.561774,-0.45255 -0.638584,-1.51856 l -0.109421,-1.51855 -1.478079,0.10744 c -1.467217,0.10665 -1.47888,0.11846 -1.586562,1.60675 -0.07386,1.02084 -0.270877,1.4993 -0.617361,1.4993 -0.409399,0 -0.508882,-0.68965 -0.508882,-3.52777 z m 11.517919,2.77263 c -1.250498,-1.08603 -1.564139,-2.96469 -0.773211,-4.63144 0.325261,-0.68544 0.937948,-1.33919 1.361532,-1.45279 2.992141,-0.80246 4.827093,0.43545 4.827093,3.25648 0,2.31792 -0.760571,3.24346 -2.859786,3.48007 -1.327333,0.14961 -1.759169,0.0394 -2.555628,-0.65232 z m 3.606236,-0.77778 c 0.745846,-0.8987 0.870898,-2.64103 0.256818,-3.57823 -0.875622,-1.33637 -2.826706,-1.25142 -3.553858,0.15475 -0.71137,1.37563 -0.679965,1.85884 0.192934,2.96855 0.805935,1.02458 2.433383,1.26309 3.104106,0.45493 z m -21.538918,-0.49555 c -0.07993,-0.69462 -0.337047,-1.00215 -0.905376,-1.08287 -0.436562,-0.062 -0.793749,-0.2494 -0.793749,-0.41643 0,-0.16704 0.357187,-0.35444 0.793749,-0.41644 0.568329,-0.0807 0.825451,-0.38825 0.905376,-1.08287 0.156094,-1.35659 1.123097,-1.28065 1.123097,0.0882 0,0.8937 0.137191,1.05833 0.881944,1.05833 1.097506,0 1.168114,0.61584 0.08819,0.76921 -0.568329,0.0807 -0.825451,0.38825 -0.905376,1.08287 -0.06139,0.53358 -0.328662,0.97014 -0.59393,0.97014 -0.265268,0 -0.532536,-0.43656 -0.59393,-0.97014 z m 43.809206,-6.08542 c 0,-0.62003 0.235187,-0.70555 1.940278,-0.70555 1.705092,0 1.940278,0.0855 1.940278,0.70555 0,0.62004 -0.235186,0.70556 -1.940278,0.70556 -1.705091,0 -1.940278,-0.0855 -1.940278,-0.70556 z m 13.640742,0.47037 c -0.129353,-0.12935 -0.235186,-0.44685 -0.235186,-0.70555 0,-0.33496 0.558563,-0.47037 1.940277,-0.47037 1.705092,0 1.940278,0.0855 1.940278,0.70555 0,0.60824 -0.235186,0.70556 -1.705091,0.70556 -0.937804,0 -1.810929,-0.10583 -1.940278,-0.23519 z m 6.467588,-0.47037 c 0,-0.62003 0.23519,-0.70555 1.94028,-0.70555 1.70509,0 1.94028,0.0855 1.94028,0.70555 0,0.62004 -0.23519,0.70556 -1.94028,0.70556 -1.70509,0 -1.94028,-0.0855 -1.94028,-0.70556 z m 6.58519,0.47037 c -0.12935,-0.12935 -0.23519,-0.44685 -0.23519,-0.70555 0,-0.33971 0.58797,-0.47037 2.11667,-0.47037 1.88148,0 2.11667,0.0784 2.11667,0.70555 0,0.61737 -0.23519,0.70556 -1.88148,0.70556 -1.03482,0 -1.98732,-0.10583 -2.11667,-0.23519 z m 7.0714,0.0158 c -0.13807,-0.13806 -0.25103,-0.47061 -0.25103,-0.739 0,-0.37113 0.48568,-0.46264 2.02847,-0.38217 1.52088,0.0793 2.02847,0.23821 2.02847,0.63496 0,0.38659 -0.47892,0.5572 -1.77744,0.63321 -0.97759,0.0572 -1.8904,-0.009 -2.02847,-0.14699 z m 6.45175,-0.48621 c 0,-0.62003 0.23518,-0.70555 1.94027,-0.70555 1.70509,0 1.94028,0.0855 1.94028,0.70555 0,0.62004 -0.23519,0.70556 -1.94028,0.70556 -1.70509,0 -1.94027,-0.0855 -1.94027,-0.70556 z m 6.70277,0.0185 c 0,-0.64355 0.2185,-0.72401 1.96615,-0.72401 1.68204,0 1.94919,0.0892 1.84878,0.61736 -0.0907,0.47714 -0.53728,0.64158 -1.96615,0.72399 -1.66392,0.096 -1.84878,0.0342 -1.84878,-0.61736 z m 6.70278,-0.0185 c 0,-0.62003 0.23519,-0.70555 1.94028,-0.70555 1.70509,0 1.94028,0.0855 1.94028,0.70555 0,0.62004 -0.23519,0.70556 -1.94028,0.70556 -1.70509,0 -1.94028,-0.0855 -1.94028,-0.70556 z m 6.52639,0.35278 c -0.43926,-0.71073 0.26279,-1.05833 2.13749,-1.05833 1.68427,0 1.91945,0.0864 1.91945,0.70555 0,0.61911 -0.23518,0.70556 -1.91945,0.70556 -1.0557,0 -2.01757,-0.15875 -2.13749,-0.35278 z m 6.87917,-0.33434 c 0,-0.64353 0.21849,-0.72399 1.96614,-0.72399 1.68204,0 1.94919,0.0892 1.84878,0.61736 -0.0907,0.47714 -0.53728,0.64158 -1.96615,0.72399 -1.66392,0.096 -1.84877,0.0342 -1.84877,-0.61736 z m 6.70277,-0.0184 c 0,-0.62003 0.23519,-0.70555 1.94028,-0.70555 1.70509,0 1.94028,0.0855 1.94028,0.70555 0,0.62004 -0.23519,0.70556 -1.94028,0.70556 -1.70509,0 -1.94028,-0.0855 -1.94028,-0.70556 z m 6.70278,0 c 0,-0.62003 0.23519,-0.70555 1.94028,-0.70555 1.70509,0 1.94028,0.0855 1.94028,0.70555 0,0.62004 -0.23519,0.70556 -1.94028,0.70556 -1.70509,0 -1.94028,-0.0855 -1.94028,-0.70556 z m 6.60103,0.48622 c -0.13807,-0.13807 -0.25103,-0.4627 -0.25103,-0.7214 0,-0.34034 0.59228,-0.47037 2.14253,-0.47037 1.85004,0 2.12652,0.0843 2.02517,0.61736 -0.0899,0.47287 -0.5326,0.64171 -1.8915,0.7214 -0.97577,0.0572 -1.8871,-0.009 -2.02517,-0.14699 z m 7.03971,-0.0158 c -0.12935,-0.12936 -0.23518,-0.44686 -0.23518,-0.70556 0,-0.33496 0.55856,-0.47037 1.94027,-0.47037 1.7051,0 1.94028,0.0855 1.94028,0.70555 0,0.60824 -0.23518,0.70556 -1.70509,0.70556 -0.9378,0 -1.81093,-0.10583 -1.94028,-0.23519 z m 19.87315,-0.47038 c 0,-0.62003 0.23519,-0.70555 1.94028,-0.70555 1.70509,0 1.94027,0.0855 1.94027,0.70555 0,0.62004 -0.23518,0.70556 -1.94027,0.70556 -1.70509,0 -1.94028,-0.0855 -1.94028,-0.70556 z m 6.70278,0 c 0,-0.62003 0.23518,-0.70555 1.94027,-0.70555 1.7051,0 1.94028,0.0855 1.94028,0.70555 0,0.62004 -0.23518,0.70556 -1.94028,0.70556 -1.70509,0 -1.94027,-0.0855 -1.94027,-0.70556 z m 6.70277,0.0176 c 0,-0.64965 0.2178,-0.72316 2.14254,-0.72316 1.85008,0 2.12649,0.0843 2.02504,0.61736 -0.0927,0.48699 -0.54513,0.6397 -2.14253,0.72316 -1.8407,0.0962 -2.02505,0.04 -2.02505,-0.61736 z m 6.70278,-0.0176 c 0,-0.62003 0.23519,-0.70555 1.94028,-0.70555 1.70509,0 1.94028,0.0855 1.94028,0.70555 0,0.62004 -0.23519,0.70556 -1.94028,0.70556 -1.70509,0 -1.94028,-0.0855 -1.94028,-0.70556 z m 6.58519,0.47037 c -0.12936,-0.12935 -0.23519,-0.44685 -0.23519,-0.70555 0,-0.33971 0.58797,-0.47037 2.11667,-0.47037 1.88148,0 2.11666,0.0784 2.11666,0.70555 0,0.61737 -0.23518,0.70556 -1.88148,0.70556 -1.03481,0 -1.98731,-0.10583 -2.11666,-0.23519 z m 6.82037,-0.47037 c 0,-0.62003 0.23518,-0.70555 1.94027,-0.70555 1.7051,0 1.94028,0.0855 1.94028,0.70555 0,0.62004 -0.23518,0.70556 -1.94028,0.70556 -1.70509,0 -1.94027,-0.0855 -1.94027,-0.70556 z m 6.52638,0.35278 c -0.43925,-0.71073 0.26279,-1.05833 2.13749,-1.05833 1.68427,0 1.91946,0.0864 1.91946,0.70555 0,0.61911 -0.23519,0.70556 -1.91946,0.70556 -1.0557,0 -2.01757,-0.15875 -2.13749,-0.35278 z m 6.87917,-0.33434 c 0,-0.64353 0.21849,-0.72399 1.96614,-0.72399 1.68205,0 1.94919,0.0892 1.84878,0.61736 -0.0907,0.47714 -0.53728,0.64158 -1.96614,0.72399 -1.66393,0.096 -1.84878,0.0342 -1.84878,-0.61736 z m 6.60058,0.46733 c -0.13782,-0.13782 -0.25058,-0.46982 -0.25058,-0.73778 0,-0.37366 0.51387,-0.46273 2.20486,-0.38218 1.67801,0.0799 2.20486,0.23147 2.20486,0.63419 0,0.39423 -0.49837,0.55559 -1.95428,0.63276 -1.07486,0.057 -2.06705,-0.009 -2.20486,-0.14699 z m 7.05642,7e-4 c -0.13829,-0.13813 -0.25145,-0.46295 -0.25145,-0.72165 0,-0.33571 0.56288,-0.47037 1.96615,-0.47037 1.68199,0 1.9492,0.0892 1.84891,0.61736 -0.0873,0.45992 -0.52462,0.644 -1.7147,0.72182 -0.8786,0.0574 -1.71061,-0.009 -1.84891,-0.14699 z m 6.27494,-0.13369 c -0.43926,-0.71073 0.26279,-1.05833 2.13749,-1.05833 1.68427,0 1.91946,0.0864 1.91946,0.70555 0,0.61911 -0.23519,0.70556 -1.91946,0.70556 -1.0557,0 -2.01757,-0.15875 -2.13749,-0.35278 z m -139.5236,-5.29166 c 0,-0.39841 0.23519,-0.70556 0.54024,-0.70556 0.92085,0 0.91988,-0.81607 -0.004,-3.08894 -1.02085,-2.51233 -1.07588,-2.90828 -0.40423,-2.90828 0.26681,0 0.79954,0.75406 1.18384,1.67569 l 0.69873,1.6757 0.4705,-1.53603 c 0.43541,-1.42148 1.1525,-2.1756 1.62216,-1.70594 0.21416,0.21416 -1.90045,6.14111 -2.44677,6.85794 -0.54463,0.71461 -1.6608,0.53679 -1.6608,-0.26458 z m 15.40463,0.47037 c -0.45937,-0.45937 -0.22497,-1.09631 0.47037,-1.27815 0.38805,-0.10148 0.70555,-0.43161 0.70555,-0.73364 0,-0.30202 -0.3175,-1.35464 -0.70555,-2.33914 -0.84304,-2.1388 -0.88575,-2.82222 -0.17639,-2.82222 0.29104,0 0.52917,0.16385 0.52917,0.36411 0,0.20025 0.2544,0.95432 0.56534,1.67569 l 0.56534,1.31159 0.50211,-1.40259 c 0.54661,-1.52692 1.05368,-2.20215 1.39636,-1.85946 0.28164,0.28164 -1.45924,5.52416 -2.17261,6.54264 -0.53977,0.77064 -1.22837,0.99249 -1.67969,0.54117 z m 66.28576,-3.14069 c -1.46013,-3.11791 -1.49478,-3.32696 -0.5515,-3.32696 0.68595,0 0.70555,-0.23518 0.70555,-8.46666 0,-7.29075 0.0735,-8.46667 0.52917,-8.46667 0.45567,0 0.52916,1.17592 0.52916,8.46667 v 8.46666 h 1.05834 c 1.18762,0 1.26256,0.2389 0.58452,1.86342 -0.26059,0.62435 -0.58424,1.72494 -0.71922,2.44574 -0.13497,0.7208 -0.38796,1.39864 -0.56218,1.50631 -0.17423,0.10768 -0.88245,-1.01215 -1.57384,-2.48851 z m -88.04039,-2.48741 v -3.74657 l 2.10345,0.15215 c 3.31704,0.23993 4.48844,1.83949 2.67508,3.65285 -0.63396,0.63397 -1.24818,0.86591 -2.29305,0.86591 h -1.42715 v 1.41111 c 0,1.01914 -0.14699,1.41111 -0.52916,1.41111 -0.43716,0 -0.52917,-0.65147 -0.52917,-3.74656 z m 3.87683,-0.65867 c 0.75493,-0.90963 0.15645,-1.59199 -1.39632,-1.59199 -1.25471,0 -1.42218,0.0969 -1.42218,0.82315 0,0.45273 0.10584,0.92898 0.23519,1.05833 0.43287,0.43288 2.14282,0.24126 2.58331,-0.28949 z m 7.41206,1.7594 v -2.64583 h 1.23472 c 1.41688,0 1.66653,0.70158 0.44097,1.23926 -0.65439,0.2871 -0.81247,0.67341 -0.90038,2.20032 -0.16295,2.8304 -0.77531,2.20348 -0.77531,-0.79375 z m 3.39098,1.98403 c -1.0009,-1.10598 -1.12648,-3.01381 -0.25569,-3.88459 0.74943,-0.74943 2.61708,-1.00231 3.45722,-0.46811 0.6464,0.41102 1.21247,2.20024 0.95947,3.03263 -0.59236,1.94887 -2.92285,2.68821 -4.161,1.32007 z m 2.401,-0.61066 c 0.73737,-0.28296 0.73687,-2.37327 -7.1e-4,-2.98541 -1.12508,-0.93373 -2.65369,0.8278 -1.98738,2.2902 0.41498,0.91078 0.94414,1.09582 1.9881,0.69521 z m 2.82539,0.80357 c -0.37317,-0.97245 0.0171,-6.70328 0.46666,-6.85217 0.3342,-0.1107 0.44097,0.75793 0.44097,3.5875 0,2.3296 -0.13682,3.73356 -0.36385,3.73356 -0.20012,0 -0.44482,-0.211 -0.54378,-0.46889 z m 6.74858,-0.21443 c -0.82321,-0.90964 -0.36785,-1.69776 0.51782,-0.89623 0.67161,0.60779 1.78658,0.60288 1.80032,-0.008 0.004,-0.19403 -0.49621,-0.49938 -1.11241,-0.67856 -1.348,-0.39198 -2.07934,-1.68059 -1.41091,-2.486 0.75947,-0.91511 3.53645,-0.61666 3.53645,0.38008 0,0.60625 -0.49768,0.62722 -1.40709,0.0593 -0.53071,-0.33143 -0.78874,-0.33537 -1.10722,-0.0169 -0.31848,0.31848 -0.17666,0.51018 0.60856,0.8226 1.84268,0.73317 2.08066,0.92314 2.20384,1.75936 0.23903,1.62274 -2.41867,2.4021 -3.62936,1.0643 z m 4.74238,-1.96251 c 0,-1.5287 0.14895,-2.64583 0.35278,-2.64583 0.20383,0 0.35278,1.11713 0.35278,2.64583 0,1.5287 -0.14895,2.64583 -0.35278,2.64583 -0.20383,0 -0.35278,-1.11713 -0.35278,-2.64583 z m 2.30316,2.16768 c -0.44918,-0.32845 -0.57285,-0.68741 -0.39501,-1.14652 0.25015,-0.64576 0.27499,-0.64653 0.73426,-0.0227 0.28547,0.38774 0.80385,0.59912 1.29772,0.52916 1.12696,-0.15962 0.91896,-0.69594 -0.44614,-1.15035 -2.95981,-0.98524 -1.75432,-3.63689 1.30439,-2.8692 0.46534,0.11679 0.84606,0.44745 0.84606,0.73479 0,0.63552 -0.4843,0.6666 -1.40709,0.0903 -0.5349,-0.33405 -0.78723,-0.33687 -1.11171,-0.0124 -0.32447,0.32447 -0.0462,0.57985 1.22592,1.12516 1.33217,0.57103 1.64566,0.87344 1.64566,1.58748 0,1.46248 -2.28549,2.16426 -3.69406,1.13429 z M 19.629564,242.37404 c 0,-0.75219 0.17047,-1.08773 0.5526,-1.08773 0.39163,0 0.52008,0.27467 0.44097,0.94293 -0.16259,1.37341 -0.99357,1.49451 -0.99357,0.1448 z m 264.583326,-0.0733 c 0,-0.2182 0.79375,-1.16581 1.76389,-2.1058 1.77322,-1.71813 2.21677,-2.89265 1.23472,-3.2695 -0.72555,-0.27842 -1.5875,0.0987 -1.5875,0.69448 0,0.49954 -0.75768,0.67449 -1.16351,0.26865 -0.38233,-0.38232 0.46014,-1.55941 1.36135,-1.90205 1.07894,-0.41021 2.44547,0.073 2.96812,1.04961 0.48176,0.90016 0.065,1.79508 -1.69177,3.63286 l -1.26461,1.32291 h 1.6591 c 0.9125,0 1.6591,0.15875 1.6591,0.35278 0,0.20159 -1.05834,0.35278 -2.46945,0.35278 -1.59346,0 -2.46944,-0.14073 -2.46944,-0.39672 z m 6.02205,-0.10254 c -0.36416,-0.43877 -0.51949,-2.21049 -0.41166,-4.69515 0.0484,-1.1157 1.94758,-2.06695 3.08865,-1.54705 1.43832,0.65534 2.04541,3.8165 1.12211,5.84292 -0.3445,0.7561 -0.64524,0.89854 -1.89708,0.89854 -0.8524,0 -1.66462,-0.2132 -1.90202,-0.49926 z m 2.72684,-0.62963 c 0.7,-0.70001 0.52927,-3.60478 -0.25352,-4.31319 -0.64475,-0.58349 -0.71169,-0.57772 -1.41111,0.12171 -0.88019,0.88018 -0.96869,2.71201 -0.18509,3.83076 0.61326,0.87555 1.21713,0.99331 1.84972,0.36072 z m 2.37267,0.0881 c -1.50778,-2.91572 0.36771,-6.71199 2.77426,-5.6155 1.59302,0.72583 2.14465,3.57251 1.08817,5.6155 -0.45815,0.88597 -0.74546,1.04082 -1.93121,1.04082 -1.18576,0 -1.47307,-0.15485 -1.93122,-1.04082 z m 3.05031,-0.89946 c 0.58965,-2.19238 -0.65424,-4.73347 -1.7706,-3.6171 -0.4319,0.4319 -0.55719,3.34395 -0.18554,4.31245 0.36502,0.95122 1.63467,0.49989 1.95614,-0.69535 z m 10.06847,1.72135 c -0.3571,-0.35708 -0.3124,-1.54496 0.0581,-1.54496 0.17027,0 0.50721,0.23812 0.74875,0.52917 0.6236,0.75139 1.51552,0.6551 2.06378,-0.22281 0.41091,-0.65796 0.37691,-0.84468 -0.27189,-1.49349 -0.6262,-0.62619 -0.84988,-0.67383 -1.4383,-0.30636 -0.38324,0.23934 -0.8577,0.43516 -1.05436,0.43516 -0.45834,0 -0.46202,-1.79599 -0.006,-2.99503 0.31951,-0.84038 0.50118,-0.91453 2.0009,-0.81672 2.11882,0.13819 2.54839,0.98952 0.49931,0.98952 -1.76983,0 -1.94921,0.76267 -0.29398,1.24997 1.54318,0.45431 2.25211,1.88988 1.60396,3.24795 -0.39,0.81715 -0.71499,0.98661 -2.06086,1.0746 -0.87882,0.0575 -1.711,-0.009 -1.84929,-0.147 z m 5.09684,-0.67961 c -0.51841,-1.13778 -0.52727,-3.39568 -0.0177,-4.51402 0.58889,-1.29248 1.8826,-1.76204 3.10833,-1.12818 1.42822,0.73856 1.95309,3.61511 1.02948,5.6422 -0.35379,0.77651 -0.63357,0.89854 -2.06003,0.89854 -1.42647,0 -1.70624,-0.12203 -2.06004,-0.89854 z m 3.06112,-0.98787 c 0.9229,-1.92555 -0.52039,-5.01098 -1.68667,-3.60571 -1.10852,1.33569 -0.65107,4.95984 0.59574,4.71972 0.3375,-0.065 0.82842,-0.5663 1.09093,-1.11401 z m 2.52246,1.17297 c -0.20997,-0.39239 -0.33464,-1.68583 -0.27696,-2.87431 0.0915,-1.88566 0.22839,-2.25288 1.07495,-2.88322 l 0.97014,-0.72235 0.97013,0.72251 c 0.86639,0.64524 0.98136,0.97669 1.07517,3.09925 0.1246,2.81888 -0.21573,3.37156 -2.0761,3.37156 -0.99942,0 -1.45577,-0.18741 -1.73733,-0.71344 z m 2.82685,-1.22806 c 0.49607,-1.5031 0.16954,-3.23441 -0.69759,-3.69847 -1.1957,-0.63992 -2.07856,1.70259 -1.40776,3.73521 0.53817,1.63062 1.56098,1.61277 2.10535,-0.0367 z m 9.31471,1.1989 c -0.48909,-0.54042 -0.67205,-1.26985 -0.67205,-2.67927 0,-1.72851 0.11378,-2.02769 1.05834,-2.78343 0.58208,-0.46572 1.48604,-0.84754 2.00879,-0.8485 1.1243,-0.002 2.98188,1.46031 2.61302,2.05713 -0.30611,0.49531 -1.27042,0.54859 -1.27042,0.0702 0,-0.54883 -1.37852,-1.12863 -2.12221,-0.8926 -0.39899,0.12663 -0.85097,0.77304 -1.0837,1.54977 -0.83513,2.7874 1.51275,4.75419 3.16615,2.65223 0.70432,-0.89538 1.45087,-0.89759 1.45087,-0.004 0,1.61466 -3.88306,2.2774 -5.14879,0.87876 z M 2.5679538,241.41466 c -0.67997,-0.67997 -0.93005,-1.29209 -0.93005,-2.27646 0,-2.62277 1.1854,-3.84905 3.72076,-3.84905 1.70691,0 3.31416,1.65173 2.24826,2.31048 -0.20953,0.12951 -0.61541,-0.0993 -0.90194,-0.50834 -1.01053,-1.44273 -3.37843,-0.7377 -3.8514,1.14672 -0.47472,1.89146 0.95882,3.28903 3.06636,2.98941 1.17066,-0.16643 1.33841,-1.35215 0.19129,-1.35215 -0.47854,0 -0.96144,-0.23813 -1.07313,-0.52917 -0.16371,-0.42662 0.13663,-0.52917 1.54976,-0.52917 h 1.75281 v 1.21472 c 0,1.57239 -1.0264,2.31306 -3.20538,2.31306 -1.29866,0 -1.82965,-0.19236 -2.56734,-0.93005 z m 6.6157,0.42654 c -0.10627,-0.27693 -0.14098,-0.87224 -0.0771,-1.32292 0.0913,-0.6444 0.43629,-0.89038 1.6153902,-1.15174 0.82462,-0.18279 1.49931,-0.46558 1.49931,-0.62844 0,-0.56863 -1.11275,-0.71683 -1.96354,-0.26149 -1.1131302,0.59573 -1.5025302,0.18834 -0.6842502,-0.71585 0.8536702,-0.94329 2.8415902,-0.95838 3.3409302,-0.0254 0.20086,0.3753 0.36519,1.56592 0.36519,2.64583 v 1.96347 h -1.95134 c -1.3649102,0 -2.0094202,-0.15132 -2.1445702,-0.50351 z m 2.3552202,-0.56723 c 1.01549,-0.54348 0.87182,-1.33708 -0.2048,-1.13127 -0.99054,0.18935 -1.3809202,0.61329 -1.05312,1.14368 0.27307,0.44183 0.4117,0.44046 1.25792,-0.0124 z m 2.88538,0.66321 c -1.09419,-1.0942 -0.13702,-1.83082 1.01926,-0.78441 0.61838,0.55963 1.71661,0.46073 1.71661,-0.15459 0,-0.17068 -0.6351,-0.55981 -1.41133,-0.86472 -1.69208,-0.66466 -2.08098,-1.43952 -1.20713,-2.40511 0.78356,-0.86582 2.8851,-0.80402 3.4522,0.10152 0.50788,0.81099 2.5e-4,1.23699 -0.845,0.70913 -0.3766,-0.23519 -0.93823,-0.42762 -1.24807,-0.42762 -0.95723,0 -0.35111,0.81127 0.92785,1.24189 1.06568,0.35881 1.21342,0.55506 1.21342,1.6118 0,1.17571 -0.0364,1.20563 -1.58934,1.30725 -0.93099,0.0609 -1.77123,-0.0779 -2.02847,-0.33514 z m 10.84976,-1.70914 c 0,-1.17592 -0.15679,-2.11666 -0.35278,-2.11666 -0.19403,0 -0.35278,-0.23813 -0.35278,-0.52917 0,-0.29104 0.15875,-0.52917 0.35278,-0.52917 0.19403,0 0.35278,-0.3175 0.35278,-0.70555 0,-0.38806 0.15875,-0.70556 0.35277,-0.70556 0.19403,0 0.35278,0.3175 0.35278,0.70556 0,0.38805 0.15875,0.70555 0.35278,0.70555 0.19403,0 0.35278,0.23813 0.35278,0.52917 0,0.29104 -0.15875,0.52917 -0.35278,0.52917 -0.59184,0 -0.42784,3.07071 0.17639,3.30257 0.843,0.32349 0.61283,0.93076 -0.35278,0.93076 -0.84275,0 -0.88194,-0.0941 -0.88194,-2.11667 z m 2.95964,1.61316 c -0.10627,-0.27693 -0.14098,-0.87224 -0.0771,-1.32292 0.0913,-0.6444 0.43629,-0.89038 1.61539,-1.15174 0.82462,-0.18279 1.49931,-0.46558 1.49931,-0.62844 0,-0.56863 -1.11275,-0.71683 -1.96354,-0.26149 -1.11313,0.59573 -1.50253,0.18834 -0.68425,-0.71585 0.71687,-0.79213 2.61096,-0.95621 3.28279,-0.28438 0.23967,0.23966 0.42333,1.38759 0.42333,2.64583 v 2.2225 h -1.95135 c -1.3649,0 -2.00941,-0.15132 -2.14456,-0.50351 z m 2.80728,-0.84803 c 0.71562,-0.79075 0.49612,-1.07088 -0.66515,-0.84889 -0.98292,0.1879 -1.37183,0.613 -1.04483,1.1421 0.33643,0.54435 1.06507,0.41941 1.70998,-0.29321 z m 2.69974,-1.29429 v -2.64584 h 1.411115 c 1.15898,0 1.411111,0.12169 1.411111,0.68102 0,0.43766 -0.283648,0.72131 -0.79375,0.79375 -0.691501,0.0982 -0.807488,0.35132 -0.900381,1.96482 -0.0767,1.33229 -0.249968,1.85208 -0.617365,1.85208 -0.40039,0 -0.51073,-0.57161 -0.51073,-2.64583 z m 9.376254,1.81901 c -1.148965,-0.42418 -2.142549,-0.93179 -2.207962,-1.12804 -0.09602,-0.28806 4.747599,-2.98403 5.361157,-2.98403 0.0938,0 0.170554,0.31521 0.170554,0.70046 0,0.6815 0.292756,0.70298 10.818643,0.79375 8.273979,0.0713 10.853187,0.19701 10.965508,0.53426 0.115393,0.34647 -2.20309,0.44098 -10.818643,0.44098 H 46.440677 v 1.23472 c 0,1.47981 -0.315419,1.51852 -3.323749,0.4079 z m 56.714928,-0.0703 c -0.114896,-0.29941 -0.149598,-0.59763 -0.07712,-0.66271 0.07248,-0.0651 2.116154,-0.94204 4.541494,-1.94881 2.42535,-1.00676 5.1241,-2.12706 5.99723,-2.48957 0.87312,-0.3625 4.20687,-1.7187 7.40833,-3.01379 3.20146,-1.29508 6.29708,-2.56134 6.87917,-2.8139 0.91852,-0.39855 5.85976,-2.42433 8.19657,-3.36039 0.78657,-0.31507 0.78844,-0.33687 0.88194,-10.29179 0.0807,-8.59077 0.16719,-9.97605 0.62287,-9.97605 0.45559,0 0.54219,1.3777 0.62276,9.9082 l 0.0936,9.9082 1.84669,0.80945 c 2.58493,1.13305 3.00638,1.30705 5.19808,2.14611 1.82695,0.69942 2.48333,0.9743 5.43317,2.27527 0.65991,0.29104 1.31061,0.52916 1.44599,0.52916 0.13538,0 0.74639,0.22087 1.3578,0.49083 0.6114,0.26996 2.8579,1.15653 4.9922,1.97017 2.13431,0.81364 4.35681,1.69163 4.93889,1.9511 0.58208,0.25946 1.93146,0.81402 2.99861,1.23235 1.06715,0.41832 2.4959,0.99958 3.175,1.29167 0.6791,0.29209 1.74728,0.75178 2.37374,1.02153 0.78352,0.33737 1.07453,0.6585 0.9324,1.0289 -0.26208,0.68296 -0.0738,0.71821 -2.77697,-0.51988 -1.2709,-0.58208 -2.4608,-1.05833 -2.64422,-1.05833 -0.18341,0 -1.17163,-0.38176 -2.19602,-0.84834 -2.92296,-1.33134 -9.90296,-4.09055 -10.34789,-4.09055 -0.22114,0 -0.86303,-0.22428 -1.42642,-0.49839 -2.52688,-1.22943 -15.26072,-6.20387 -15.86921,-6.19926 -0.81566,0.006 -3.29819,0.83014 -5.34781,1.77495 -0.82251,0.37915 -1.57186,0.68936 -1.66524,0.68936 -0.0934,0 -1.03744,0.39688 -2.09791,0.88195 -1.06047,0.48507 -2.02638,0.88194 -2.14648,0.88194 -0.12009,0 -0.9637,0.32617 -1.87468,0.72482 -2.28039,0.9979 -2.61237,1.13394 -6.41884,2.63028 -4.46687,1.75594 -11.60049,4.74631 -13.54795,5.67921 -1.26756,0.6072 -1.24586,0.60798 -1.49976,-0.0537 z M 301.499,240.22808 c 0,-0.20382 1.11713,-0.35277 2.64583,-0.35277 1.5287,0 2.64584,0.14895 2.64584,0.35277 0,0.20383 -1.11714,0.35278 -2.64584,0.35278 -1.5287,0 -2.64583,-0.14895 -2.64583,-0.35278 z m -154.51666,-2.11677 c 0,-0.38806 0.15875,-0.70556 0.35278,-0.70556 0.19403,0 0.35278,0.3175 0.35278,0.70556 0,0.38805 -0.15875,0.70555 -0.35278,0.70555 -0.19403,0 -0.35278,-0.3175 -0.35278,-0.70555 z m 180.16805,0.13378 c -0.44849,-0.44846 -0.266,-1.79916 0.30734,-2.27499 0.80454,-0.6677 1.73432,0.028 1.73432,1.29771 0,0.82928 -0.16728,1.03939 -0.89513,1.12428 -0.49234,0.0574 -1.00828,-0.009 -1.14653,-0.147 z m 1.5125,-0.99491 c 0,-0.27959 -0.14778,-0.59968 -0.3284,-0.71131 -0.41942,-0.25921 -0.84124,0.40138 -0.55355,0.86688 0.32442,0.52489 0.88195,0.42654 0.88195,-0.15557 z m -113.94722,-3.01943 v -2.82222 h -1.05833 c -0.82315,0 -1.05834,-0.15679 -1.05834,-0.70556 0,-0.64284 0.23519,-0.70555 2.64584,-0.70555 1.5287,0 2.64583,0.14895 2.64583,0.35278 0,0.19402 0.0397,0.47028 0.0882,0.61389 0.0485,0.14362 -0.38805,0.34316 -0.97014,0.44344 -1.05794,0.18225 -1.05837,0.18333 -1.16136,2.91388 -0.0796,2.11073 -0.21993,2.73156 -0.61736,2.73156 -0.40773,0 -0.51433,-0.58495 -0.51433,-2.82222 z m 3.88056,1.59422 c 0,-1.25618 0.0951,-1.32757 2.22349,-1.66868 0.78029,-0.12505 0.83829,-0.69074 0.11746,-1.14543 -0.38104,-0.24035 -0.74612,-0.14758 -1.26413,0.32121 -0.8344,0.75513 -1.41367,0.45519 -0.85203,-0.44115 0.47297,-0.75484 3.2401,-1.04036 3.45314,-0.3563 0.079,0.25377 0.23772,1.37422 0.35263,2.48988 l 0.20893,2.02847 h -2.11974 -2.11975 z m 2.82222,-0.18311 c 0.32911,-0.61494 0.26828,-0.70555 -0.47356,-0.70555 -0.88554,0 -1.80893,0.77492 -1.40486,1.17898 0.47257,0.47257 1.51239,0.2105 1.87842,-0.47343 z m 2.46944,-1.05833 v -2.46945 h 1.41111 c 1.01914,0 1.41112,0.147 1.41112,0.52917 0,0.29104 -0.31192,0.52917 -0.69315,0.52917 -0.87702,0 -1.42352,1.00685 -1.42352,2.62264 0,0.69185 -0.15875,1.25791 -0.35278,1.25791 -0.20159,0 -0.35278,-1.05833 -0.35278,-2.46944 z m -90.32636,-83.87292 c -0.23252,-0.7276 -0.56233,-1.47372 -0.73292,-1.65805 -0.50088,-0.54123 -0.35572,-1.60514 0.21901,-1.60514 0.46226,0 0.52917,-1.94028 0.52917,-15.34583 0,-15.11065 0.0108,-15.34584 0.70555,-15.34584 0.69474,0 0.70556,0.23519 0.70556,15.34584 v 15.34583 h 1.0842 c 0.69352,0 1.04275,0.1589 0.96916,0.44097 -0.26216,1.005 -2.26086,4.13536 -2.64337,4.14006 -0.22748,0.003 -0.60385,-0.59023 -0.83636,-1.31784 z m -16.5653,-41.54618 v -3.79556 l 2.16614,0.19642 c 2.3888,0.21661 2.75518,0.52878 2.78273,2.37102 0.0102,0.6791 0.0397,1.83418 0.0656,2.56685 0.0259,0.73267 -0.13687,1.51612 -0.36175,1.741 -0.22488,0.22488 -1.36373,0.47794 -2.53079,0.56235 l -2.12191,0.15349 z m 3.72493,2.14393 c 0.5483,-0.40715 0.60681,-0.63568 0.29357,-1.14653 -0.54252,-0.88474 -2.72659,-0.88479 -2.89698,-5e-5 -0.30482,1.5828 1.15196,2.22439 2.60341,1.14658 z m -0.0112,-3.38751 c 0.34511,-0.55838 -0.52059,-1.39565 -1.44303,-1.39565 -0.93261,0 -1.36568,0.50268 -1.07829,1.25161 0.22599,0.58892 2.17748,0.70041 2.52132,0.14404 z m 2.87147,4.71916 c -0.12935,-0.12935 -0.23518,-1.41258 -0.23518,-2.85162 0,-1.93578 0.11471,-2.57848 0.44097,-2.47053 0.28904,0.0956 0.47647,1.07811 0.544,2.85162 0.0939,2.466 -0.10359,3.11673 -0.74979,2.47053 z m 2.46483,-0.28077 c -0.97337,-0.73748 -1.01024,-3.84918 -0.0542,-4.57236 0.91369,-0.69112 1.93985,-0.69357 2.92012,-0.007 0.63536,0.44502 0.78405,0.88925 0.78405,2.34236 0,1.29408 -0.17184,1.92363 -0.61736,2.26183 -0.80286,0.60946 -2.21065,0.59791 -3.03263,-0.0249 z m 2.55478,-1.48426 c 0.52024,-1.1418 0.21712,-2.12836 -0.74804,-2.43469 -0.98461,-0.31251 -1.79815,0.75561 -1.49551,1.96349 0.47742,1.90546 1.49288,2.11873 2.24355,0.4712 z m 2.15354,-0.71039 v -2.76939 l 1.49931,-0.0441 c 0.82461,-0.0243 1.6853,0.1066 1.91263,0.29081 0.26665,0.21607 0.66424,0.17822 1.12039,-0.10664 0.55361,-0.34574 0.90763,-0.35018 1.63127,-0.0205 0.88018,0.40103 0.91923,0.53319 0.81988,2.77444 -0.066,1.49002 -0.26609,2.40681 -0.54528,2.49906 -0.31343,0.10357 -0.44098,-0.36465 -0.44098,-1.61872 0,-2.07535 -0.25124,-2.88048 -0.89886,-2.88048 -0.68079,0 -0.89716,0.49988 -1.11206,2.56917 -0.21514,2.07165 -0.26135,2.18045 -0.78783,1.85506 -0.20693,-0.12789 -0.37625,-1.17566 -0.37625,-2.32838 0,-1.44437 -0.13707,-2.09417 -0.44097,-2.09044 -0.94345,0.0116 -1.28461,0.61147 -1.38988,2.44401 -0.0647,1.12607 -0.28971,1.96426 -0.5504,2.05017 -0.32767,0.10798 -0.44097,-0.56624 -0.44097,-2.62408 z m 8.17592,2.40142 c -0.28121,-0.17696 -0.42163,-0.7707 -0.35278,-1.4917 0.10447,-1.09407 0.24466,-1.2266 1.62004,-1.53139 0.82812,-0.18352 1.45069,-0.50102 1.38348,-0.70556 -0.1642,-0.49971 -1.65443,-0.69791 -1.65443,-0.22003 0,0.20752 -0.3175,0.37731 -0.70556,0.37731 -0.93008,0 -0.89567,-0.53238 0.0785,-1.21472 0.93349,-0.65384 2.43548,-0.7163 3.02594,-0.12583 0.24352,0.24351 0.42334,1.40974 0.42334,2.7455 v 2.32217 l -1.6757,0.0691 c -0.92163,0.038 -1.8859,-0.0632 -2.14283,-0.22485 z m 2.20583,-0.95073 c 0.85753,-0.85754 0.69465,-1.49128 -0.3328,-1.29487 -1.02947,0.19679 -1.37238,0.6153 -1.09545,1.33696 0.25468,0.66367 0.73669,0.64947 1.42825,-0.0421 z m 3.03622,0.57755 c -0.8102,-1.51386 -0.0485,-1.9927 1.03713,-0.65199 0.54216,0.66954 0.71558,0.71416 1.20308,0.30958 0.86652,-0.71915 0.6983,-1.02501 -0.81272,-1.47772 -1.98496,-0.59471 -2.34137,-2.54947 -0.54695,-2.99984 1.13951,-0.286 1.96543,-0.0683 2.40815,0.63472 0.53174,0.84441 0.12829,1.08784 -0.97203,0.58651 -0.65613,-0.29896 -1.04847,-0.31561 -1.30855,-0.0555 -0.26008,0.26007 0.0865,0.51635 1.1561,0.85473 1.2937,0.40931 1.54568,0.64264 1.646,1.52423 0.14461,1.27075 -0.65897,1.95767 -2.29014,1.95767 -0.78075,0 -1.27319,-0.22106 -1.52007,-0.68236 z m 4.7848,-0.0807 c -0.29395,-0.41967 -0.45233,-0.89592 -0.35196,-1.05833 0.29832,-0.4827 1.19919,-0.33535 1.19919,0.19614 0,0.55766 0.66621,0.89101 1.32292,0.66193 0.87109,-0.30386 0.41487,-1.05658 -0.97014,-1.60063 -1.13151,-0.44447 -1.41111,-0.73222 -1.41111,-1.45221 0,-1.15458 1.11177,-1.76297 2.68298,-1.46821 0.87651,0.16443 1.19757,0.40953 1.19757,0.91423 0,0.71785 -0.85507,0.95109 -1.23472,0.3368 -0.30755,-0.49762 -1.67578,-0.44121 -1.50798,0.0622 0.0761,0.22822 0.76399,0.58961 1.52871,0.8031 1.16406,0.32497 1.40966,0.55607 1.50884,1.41974 0.14458,1.25905 -0.66294,1.94832 -2.28255,1.94832 -0.77619,0 -1.32016,-0.24682 -1.68175,-0.76305 z m -25.6111,-6.11612 c 0,-0.29104 0.23812,-0.52916 0.52916,-0.52916 0.29105,0 0.52917,0.23812 0.52917,0.52916 0,0.29105 -0.23812,0.52917 -0.52917,0.52917 -0.29104,0 -0.52916,-0.23812 -0.52916,-0.52917 z"
       id="path826"
       inkscape:connector-curvature="0" />
  </g>
</svg>
